<svg version="1.0" xmlns="http://www.w3.org/2000/svg" width="682.667" height="682.667" viewBox="0 0 512 512"><path d="M253.5 16.2c-6 .3-13.5 1.3-16.5 2.2-25 7.2-27.6 8.2-37.8 14.5-11.7 7.2-25 19.2-31.5 28.4-4.4 6.2-9.7 16-9.7 17.9 0 .5-1.6 3.7-3.6 7.1-1.9 3.3-4.2 9-5.1 12.6-.8 3.6-2.5 10.2-3.8 14.6-7.4 24.6-7.8 27.9-7.8 59.5 0 24.6.9 38.8 2.9 45.9.6 2.1.5 2.2-1.5 1.2-2.8-1.5-8.5-.4-10.7 2-1.6 1.8-1.6 1.9.4 1.9 2.7 0 8.2 3.2 8.2 4.7 0 2.1 4 5.5 5.7 4.9 1.3-.5 1.4.5.9 7.6-.8 9.4-2.1 19.6-3.8 28.1-1.1 5.7-.3 10.8 2.3 15.9 1.3 2.5 1.1 3.8-.3 3.6-.7-.2-1.4.4-1.4 1.2-.3 3.2-.5 3.4-1.4 2-1.1-1.8-1.6-.6-2.3 5.7-.6 5.3.9 6.5 3.5 3 1.1-1.5 2.3-2.7 2.8-2.7.9 0 2.6 9.4 2.2 12.5-.2 1.1.2 2.9.7 4 1.4 3 3.1 10.9 3.2 15.2 0 2.1.3 3.2.6 2.4.3-.8 0-6.2-.8-12-.7-5.8-1.3-15.8-1.4-22.1-.1-6.3-.8-16-1.4-21.5-1.4-12-.7-26 2-37.5 2-8.6 4.5-27.1 5.6-41.5.3-4.4 1-8.3 1.6-8.6.5-.4.7-1.8.4-3.1-.8-3 .1-4.2 2-2.7 1 .9 1.3.7 1.3-.9 0-1.2.4-2.3.9-2.6.8-.5 1.8-4.1 2.8-9.6.2-1.4.8-2.7 1.4-2.8.5-.2.7-.7.5-1.1-.3-.4-.1-1.3.4-2.1.7-1.2 1.2-1.2 2.2-.2.6.6 1.6 1.2 2.2 1.2.5 0 .6-.3.3-.7-.8-.7 7.1-6.3 8.9-6.3.7 0 .9-1 .6-2.5-.2-1.4-.8-2.3-1.2-2-.6.4-.7-.7-.1-6.6.1-.4 1.4-.9 3.1-1.1 2-.3 3 0 3.2 1.1.3 1.2.6 1.2 2.1-.3 1.6-1.7 1.7-1.7 1.7 0 0 1.4.7 1 3.2-1.5 2.8-2.8 3.3-3 3.8-1.5.5 1.3 1 1 2.3-1.9.9-1.9 1.7-4.6 1.7-5.9 0-1.4.9-3.5 2-4.8 1.1-1.3 2-2.7 2-3.1 0-.5.6-.6 1.4-.3.9.3 1.7-.3 2.1-1.5.8-2.7 4-4.4 6.5-3.6 1.5.5 2.3 0 3.1-1.8.8-1.8 1.8-2.3 4-2.2 1.6.1 2.9-.2 2.9-.7 0-.4.5-.8 1.1-.8.6 0 .9.6.6 1.4-.3.8.1 2 1 2.8 1.4 1.1 1.5 1 .9-.9-.4-1.2-.2-2.4.4-2.8.6-.4 1 .6 1 2.4 0 1.7.3 3.1.6 3.1.9 0 4.3-4.4 4.4-5.7 0-2 2.2-2.7 3.5-1 .9 1.3 1.3 1.2 3-1.4 2.1-3.1 4-3.7 4.8-1.7.4 1 .8.9 1.6-.2.9-1.3 1.2-1.3 2-.1.7 1.1 1.1 1 2.2-.6.7-1.3 1.9-1.8 3.1-1.5 1 .2 1.8 0 1.8-.6s2.5-.9 6-.8c5.1.1 6-.1 6-1.6 0-1.1.5-1.5 1.4-1.2.8.3 1.6-.3 1.9-1.6.5-1.8.9-2 2.6-1 1.5.7 2.1.7 2.1 0s.6-.8 1.8-.2c3.1 1.6 11 2.3 11.5.9.3-.7.6-.5.6.5.1 2.2 3.8 4.3 4.4 2.5.3-.9 1.1-.9 3.8.1 2.2.8 3.5.9 3.7.2.2-.6.9-.7 1.5-.3.6.4.8 0 .4-1-.3-.9.1-1.8 1.1-2.2.9-.3 1.8-.2 2 .4.2.5.9.8 1.7.5.7-.3 1.6 0 2 .6.5.8 1.3.7 2.9-.4 4.6-2.9 11.2-1.9 12.2 2 .3 1.3 1 2.2 1.4 1.9.4-.3 1.1.2 1.4 1.1.4 1.1 1.4 1.3 4.1.8 3.4-.6 3.5-.5 3.5 2.3 0 3.6 1.6 5.3 5 5.3 3 0 5.9 2.9 7.9 7.7 1.3 3.1 3.1 4.5 3.1 2.3 0-.6.6-1 1.4-1 1.6 0 3.9 8.1 2.9 10.6-.3 1-.2 1.5.3 1.2.5-.3 1 1.2 1.1 3.4.2 2.4 1 4.6 2 5.5 1 .8 1.2 1.2.6.8-1.5-.7-1.8 2.1-.3 3 .6.3 1 1.9 1 3.5s.5 3.2 1 3.5c.6.4.8 1.1.5 1.6-.4.5.1 3.5.9 6.7 1.8 7.2 2.1 15.7 1.1 34.5-.8 14-.2 22.6 2.5 41.7l.8 5.5v-5c-.1-5.1 4.1-15.5 6.2-15.5.6 0 1-.5 1-1 0-.6-.7-1-1.5-1-1.3 0-1.5-.8-1-3.8.4-2 1-4.8 1.5-6.2.7-2.2 1.2-7.1 2.6-26 .1-2.5.9-8.3 1.6-13 .7-4.7 1.2-14.8 1.2-22.5-.1-11.5-.5-15.1-2.2-20.1-2.3-6.8-4.6-16.4-5.7-23.9-.4-2.8-1-5.5-1.3-6-1.2-1.8-3.2-8-3.2-10 0-1.1-.6-3-1.3-4.1-.6-1.2-2.2-3.9-3.4-6-1.2-2.2-3.5-5.4-5.1-7.3-1.7-1.8-3.7-5.6-4.6-8.3-.9-2.7-3.2-6.8-5.1-9.1-1.9-2.2-3.5-4.5-3.5-5.1 0-.6-1.4-2.9-3-5-1.7-2.2-3-4.7-3-5.7s-.4-2.1-1-2.4c-.5-.3-1-1.4-1-2.4s-1.2-2.8-2.6-4.2l-2.6-2.4.8 2.9.7 3-2.8-2.2c-1.5-1.2-3.4-2.2-4.1-2.2-.8 0-1.4-.7-1.4-1.5s-.6-1.5-1.3-1.5c-.7 0-2.8-1.6-4.7-3.5-2.5-2.5-4.3-3.5-6.5-3.5-1.8 0-3.5-.3-3.8-.6-1.8-1.9-11.8-5-14.5-4.6-1.8.2-4-.2-5.2-1.1-1.6-1.1-3-1.3-5.2-.6-2.2.6-4 .4-6.2-.6-4.1-1.8-9-2.1-22.1-1.3zm33.5 87.4c0 .8-.4 1.2-1 .9-.5-.3-1-1-1-1.6 0-.5.5-.9 1-.9.6 0 1 .7 1 1.6zm-97.6 36.1c-1 4-1.4 4.1-1.4.5 0-1.8.5-3.2 1-3.2.6 0 .8 1.1.4 2.7zm-46.8 155c-1 1-1.9-.5-1-1.8.6-1.1.8-1.1 1.2 0 .2.7.1 1.5-.2 1.8z"/><path d="M193.5 179c-.3.6-2.2.9-4.2.8-2.5-.2-4 .4-5.2 1.7-2.4 2.9-7.8 6.5-9.5 6.5-.9 0-2.2 1.3-3.1 3-.9 1.6-2 3-2.5 3-.6 0-1 .8-1 1.8s-.9 2.5-2 3.5c-1.7 1.4-1.9 2.5-1.5 6.9.3 2.9 1 5.7 1.5 6.2 1.8 1.8 11.2-1.3 14-4.7 1.9-2.2 3.6-3 6.5-3.3 2.2-.2 6.4-.5 9.3-.8 2.9-.3 5.2-.1 5.2.5 0 .5.9.9 1.9.9 1 0 2.2.7 2.5 1.6.5 1.3.9 1.4 2.1.4 2-1.7 3.2-.4 1.9 1.8-.7 1.1-2.5 1.7-5 1.8-2.1 0-5.6.6-7.6 1.3-2 .7-4.9 1.4-6.4 1.7-1.5.3-4.7 1.4-7 2.4-2.4 1.1-4.7 2-5.3 2-1.5 0-9.1 7.5-10.7 10.5-.8 1.5-1.4 3.7-1.4 4.9 0 1.2-.9 2.5-2.2 3.1-1.6.7-2.2 1.7-2.1 3.5.1 1.4 0 1.9-.3 1.2-.9-1.9-2.4-.4-2.4 2.4 0 1.4.4 2.2 1 1.9.6-.3 1 .1 1 .9 0 .9-.7 1.6-1.5 1.6s-1.5.5-1.5 1.1c0 .6.7.9 1.5.5.8-.3 1.5 0 1.5.7 0 .8 1.4 1.3 4 1.2 2.2 0 4-.4 4-.8 0-.5 1-.5 2.1-.2 1.2.4 3.2.1 4.6-.6 2-1.1 2.6-1.1 3.3.1.7 1.2 1 1.2 1.6-.3.3-.9.4-2.7 0-4-.4-1.8.1-2.7 2.4-4.1 1.7-.9 3-2.1 3-2.6 0-1 5.8-.8 12.5.4 4.5.9 8.8 3.5 6.8 4.3-.7.3-1.3 1.4-1.3 2.6 0 1.8.2 1.9 1.1.7.8-1.1 1.2-1.2 1.6-.2.2.6.9 1 1.4.6 1.4-.8 4.9.6 4.9 1.9 0 2.2 3.6 4.7 4.9 3.4.8-.8 1.1-.6 1.1.6 0 1.6.2 1.6 2.4.2 2.3-1.5 2.5-1.5 3.5.2.8 1.5 1.3 1.6 3 .5 2.9-1.7 3.1-1.5 1.8 1.3-.7 1.4-1.8 2.5-2.5 2.5-2.3 0-3.6 4.5-2.1 7.1l1.4 2.4.3-2.3c.2-1.5.9-2.2 1.7-1.8 3 1.1 11.1-5.1 11.5-8.9 0-.3 0-.6.1-.8 0-.1.2-1.5.3-3 .1-1.6.8-3.2 1.6-3.7 2.4-1.5 1.9-16.4-.6-19.1-1-1.1-2-3.7-2.1-5.7-.2-2-.5-5.6-.9-7.9-.5-3.8-.4-4.2 1.7-4.5 2.9-.4 4.9-6 3.1-8.9-.6-1-.9-2.6-.5-3.5.3-.9.1-1.9-.6-2.3-.7-.4-1.3-2-1.5-3.5-.1-1.4-.6-2.6-1.1-2.5-.4 0-1.2-.5-1.6-1.3-.7-1-.9-1-.9.2 0 .9-.5.7-1.6-.8-1.3-1.8-1.9-2.1-3-1.1-1.1.9-2.3.8-5.2-.4-2-.8-4.4-1.6-5.2-1.6-.8 0-4-.5-7-1.1-3-.7-7.2-1.2-9.2-1.2-2.1 0-3.8-.3-3.8-.8 0-.4-1-1-2.2-1.3-1.3-.2-3-.8-3.9-1.1-1-.4-2-.2-2.4.4zm2.2 52.7c-.7.6-8.7-2.8-8.7-3.7 0-.5 1.2-1.2 2.8-1.8 2.4-.8 2.9-.5 4.5 2.1 1 1.6 1.6 3.1 1.4 3.4zm20.8-5.3c2.5 1.8 1.3 4.6-2 4.6-2.7 0-2.8-.3-1.9-3.8.7-2.6 1.3-2.7 3.9-.8zM306.5 188.3c-4.4.7-12.3 1-14.3.5-.4-.1-2.5.2-4.8.6-3.4.6-4.2 1.2-5.3 4.2-.7 1.9-2.6 4.9-4.3 6.6-1.7 1.7-2.7 3.6-2.4 4.5.3.8.6 2.5.6 3.8 0 1.8.7 2.4 3.7 3 5.3 1 5.5 1.2 3.3 4.8-2.4 3.9-2.5 8.2-.4 13.2.8 2 1.3 4 1 4.2-.3.3 1.7 3.8 4.4 7.7 5 7.2 9.4 11 14.2 12.1 2.1.5 2.7.3 3.3-1.5.4-1.2 2.5-2.9 4.8-4 2.3-1 6.1-3.7 8.4-5.9 4.2-3.9 4.3-3.9 10.5-3.5 3.5.2 8.3.1 10.8-.4 3.9-.6 4.5-1.1 4.8-3.5.4-3.7-2.9-8.8-7.8-12.1-2.2-1.4-4-3.1-4-3.7 0-.6-.8-.9-1.7-.8-2.8.4-17.3-2.8-22.3-4.8-.8-.3-1.9-.5-2.4-.4-1.8.4-2.3-2.2-1-4.8 1-2.1 2.6-3 6.6-4.1 5.2-1.3 8.2-1.4 20-.7 6.1.4 9.8 2.6 9.8 5.9 0 1.8 5.7 5 7.3 4.1 1.2-.7.8-8.2-.7-11.6-.8-1.8-3.5-5.2-6-7.6-4.9-4.6-5.4-4.8-18.1-5.7-3.8-.2-8.3-.5-10-.7-1.6-.1-5.2.1-8 .6zm2 39.7c.3.5.1 1-.4 1-.6 0-1.1-.5-1.1-1 0-.6.2-1 .4-1 .3 0 .8.4 1.1 1zm-4.5 1.5c0 .8-.4 1.5-.9 1.5-1.3 0-2.2-1.6-1.4-2.4 1.1-1.1 2.3-.6 2.3.9zm24.1.5c2.5 1.4 1 4.5-2.7 5.4-3.5.9-3.9.3-2.4-3.4 1.3-3.3 2.1-3.6 5.1-2z"/><path d="M161 224c0 .5.5 1 1 1 .6 0 1-.5 1-1 0-.6-.4-1-1-1-.5 0-1 .4-1 1zM127.4 230.6c-1.1 2.3-1.4 3.8-.7 4.2.6.4 1.3 2.3 1.6 4.2.8 5.1 2.6 11.6 5.6 19.5l2.6 7 .3-4c.2-2.2-.4-8.2-1.3-13.4-1-5.1-1.5-11.6-1.3-14.3.4-4 .2-5.1-1.3-5.8-2.9-1.6-3.7-1.2-5.5 2.6zM159.5 228c-.4.6-.3 1.6.3 2.2.6.6 1.2.6 1.7-.2.4-.6.3-1.6-.3-2.2-.6-.6-1.2-.6-1.7.2zM377.6 237.3c-1.5 1.1-1.6 1.8-.5 6 .6 2.7 1 8.4.7 13.2-.2 4.7-.2 8.5.2 8.5 1.7 0 5.9-13.3 6.5-20.8l.8-8.2h-3c-1.6 0-3.7.6-4.7 1.3zM367 266.2c0 5.9 1.2 10 2.5 8.7.8-.9-.7-14.9-1.6-14.9-.5 0-.9 2.8-.9 6.2zM237 268.1c0 .5-.8 1.3-1.7 1.6-.9.4-2.5 1.5-3.5 2.5-2 2-6.8 2.4-8.4.8-1.7-1.7-3.9-.2-5.4 3.8-.7 2-2.2 4.9-3.3 6.3-1.8 2.6-2.1 6.7-.3 6.1.5-.2 1.9 2 3.1 4.9 1.4 3.3 2.5 4.7 2.9 3.8.5-1.1.7-1.1 1.2-.2.3.7 1.4 1.3 2.5 1.3 2 0 2.6 2.4.8 3.5-.6.4-.8 1.3-.5 2 .3.8 0 1.6-.7 1.8-.9.3-.9.9 0 2.5 1.4 2.3.9 4.7-1.5 7.4-1.2 1.4-1.8 1.5-2.9.6-1.1-.9-1.6-.9-2.3.1-.4.8-1.3 1-2.1.6-.9-.6-1.1-.4-.6.8.4 1 0 1.8-1.1 2.2-2.1.6-5.2 7.1-5.1 10.5.3 6.3 2 13.2 3.9 15.8 1.7 2.3 2.7 2.7 5.1 2.4 1.6-.2 2.9-.9 2.9-1.4 0-.6.6-.5 1.5.2 1.2 1 1.5 1 1.5-.1 0-1 .3-1 1.2-.1 1.5 1.5 7 1.6 8.5.1 1.4-1.4 8.3 2.5 8.3 4.7 0 .8.5 1.4 1 1.4.6 0 1.9.9 3 2s2 2.4 2 3c0 .5.5 1 1.1 1 .6 0 .9.6.7 1.2-.3.7-1 1.3-1.7 1.3-1.2 0-3.1 2.3-3.1 3.7 0 1.4 2.3.8 3.6-1 1-1.2 1.3-1.3 1.4-.3 0 1.1.3 1.1 1.5.1 1.1-.9 1.5-.9 1.5-.1s1.1.6 3.2-.5c1.7-.9 4.9-1.6 7-1.6 3.2.1 3.9-.3 4.4-2.4.3-1.3 1.2-2.4 1.8-2.4 1.8 0 5.9-4.2 4.8-4.9-.5-.3-1.1-1.5-1.3-2.6-.3-1.5-1.3-2-4.1-2.1-2.1-.1-4.3-.6-5-1.2-.7-.6-4.2-1.3-7.8-1.6-7-.6-7.5-.9-8.4-4.9-.6-2.5-.4-2.7 2.3-2.7 1.6 0 4.2-.5 5.7-1 2.1-.9 3.1-.8 4.2.4 1.4 1.3 1.7 1.3 2.8-.2 1-1.4 1.4-1.4 2.8-.3 1.4 1.2 1.9 1.1 3.5-.3 1.7-1.5 2.6-1.6 8.5-.5 4.1.8 7.3 2 8.4 3.2 1.2 1.5 1.4 2.1.5 2.4-.7.3-1.3 1.2-1.3 2 0 1.1.4 1.3 1.3.6 1.8-1.5 7.3-2.3 8.3-1.4.5.5 2.1 1.1 3.5 1.5 3.9.9 5.4-1.3 3.9-5.9-1.4-4.3-3.3-5.4-8.5-5-3.4.2-5-.4-10.5-4.5-9-6.4-11.7-7.4-19.5-6.6-4.4.4-7.6.2-10.4-.7-4.8-1.7-7.8-1.3-13.8 1.9-2.4 1.3-5 2.4-5.7 2.4-.8 0-1.9.7-2.6 1.5-1.2 1.4-1.5 1.4-3 0-.9-.8-2.1-1.5-2.7-1.5-.6 0-1.6-.7-2.3-1.5-1-1.1-.9-1.8.3-3 1.2-1.1 1.7-1.2 2-.2.3.6.6.2.6-1.1.1-2.5 1.9-3 2.8-.6.3.8 1.2 1.3 2.1.9.8-.3 2-.1 2.7.5.8.6 2.2.7 4.1 0 1.6-.5 4.8-1.4 7.1-2 3.4-.8 4-1.4 3.6-3-.3-1.1-.9-2-1.4-2-.5 0-.9-.7-.9-1.6 0-.8.4-1.3.9-1 .5.4 1.2-.7 1.6-2.4.4-1.6 1.1-3 1.7-3 .5 0 1.6-.7 2.4-1.5.9-.8 2.4-1.5 3.5-1.5 2 0 2.3 2.2 1.9 12.7-.1 3.6.2 4.3 1.7 4.3 1.1 0 2.4-.5 3.1-1.2 1.4-1.4 1.6-6.8.3-6.8-.6 0-.9-2.5-.7-5.5.2-4.2.8-6 2.4-7.6 1.2-1.1 2.2-2.7 2.2-3.5 0-1.3.6-1.5 2.8-.9 1.5.4 3.6.9 4.7 1 1.1.2 3.2.6 4.7 1 2.4.6 2.8.4 3.4-2.1.6-2.1.2-3.1-1.6-4.6-3-2.4-4.7-2.3-10 .9-3.1 1.8-6.2 2.7-9.9 2.9-4.8.2-6-.2-10.3-3.4-7.3-5.2-13.6-4.2-15.2 2.4l-.7 2.5-2.9-2.3c-2.1-1.7-2.9-3.2-2.9-5.6-.1-5 2.7-9.2 6.1-9.2 1.5 0 2.8-.4 2.8-.9s1.3-1.4 2.9-2.1c2.9-1.2 5-4 3-4-.6 0-.8-.8-.5-1.8.5-1.3-.1-1.7-2.4-1.9-1.7-.1-3 .2-3 .8zm11.1 30.2c-.8.8-1.1.7-1.1-.4 0-.9.3-1.9.7-2.3.4-.4.9-.2 1.1.4.3.7-.1 1.7-.7 2.3zm-4.3-1.7c1.2.4 2.2 1.3 2.2 2.1 0 1.2-.8 1.4-3.7.8-4.6-.8-5.5-1.3-4.8-2.6.7-1 3-1.1 6.3-.3zm-1.2 44.1c-.7.7-2.6-.7-2.6-1.9 0-.6.6-.6 1.5.2.9.7 1.3 1.5 1.1 1.7zM260 350c0 .5-.4 1-1 1-.5 0-1-.5-1-1 0-.6.5-1 1-1 .6 0 1 .4 1 1zM224 269.1c0 .5.5.7 1 .4.6-.3 1-.8 1-1.1 0-.2-.4-.4-1-.4-.5 0-1 .5-1 1.1zM135.1 273.6c0 1.1.3 1.4.6.6.3-.7.2-1.6-.1-1.9-.3-.4-.6.2-.5 1.3zM136 282.1c0 .5.5.7 1 .4.6-.3 1-.8 1-1.1 0-.2-.4-.4-1-.4-.5 0-1 .5-1 1.1z"/><path d="M219.6 303.6c-.7 1.8 0 3.4 1.5 3.4 1.2 0 1.2-3.7 0-4.4-.5-.3-1.2.1-1.5 1zM217 306.6c0 .8.5 1.2 1 .9.6-.4.8-1.1.5-1.6-.9-1.4-1.5-1.1-1.5.7zM362 313.5c0 .8.7 1.5 1.6 1.5 1.4 0 1.4-.3.4-1.5-.7-.8-1.4-1.5-1.6-1.5-.2 0-.4.7-.4 1.5zM150.2 337.5c0 1.6.2 2.2.5 1.2.2-.9.2-2.3 0-3-.3-.6-.5.1-.5 1.8zM151.7 343.3c-.3.9-.2 3 .4 4.5.6 1.5 1.7 4.7 2.4 7.2.8 2.5 3.2 9.7 5.4 16 2.2 6.3 4 12.3 4.1 13.4 0 1.2.5 1.6 1.5 1.2.8-.3 2.2-.9 3-1.2.9-.4 1.5 0 1.5.9s-1 1.7-2.2 1.9c-1.4.2-2.2.9-2.1 1.8.4 3.3 3.1 15.4 3.2 14.2.1-1.5 2.1-1.6 2.1-.1 0 1.4 7.2 7.9 8.2 7.3.4-.3.4-1.2.1-2.1-.4-1.1-.3-1.4.6-.9.7.5 1 1.4.7 2.2-.3.7-.1 1.6.3 1.9.5.3 1.1-.2 1.5-1 .7-2 3.6-1.9 3.6 0 0 .9 1.1 2 2.4 2.5 1.3.5 2.7 1.4 3.1 2 .3.5 1.1.8 1.6.5.5-.4.9.3.9 1.5 0 2.3 3.1 4.1 3.8 2.1.3-.9.7-.9 1.8 0 .8.7 1.7.9 2 .6.8-.8 8.5 3.3 9.1 4.9.3.8 1.4 1.4 2.4 1.4s1.9.6 1.9 1.4c0 .7.9 1.6 2 1.9 1.1.3 2 0 2-.6 0-.7.4-.6.9.2s1.6 1.1 2.6.7c.9-.3 2.6 0 3.8.6 1.2.7 3.2 1.3 4.5 1.3 1.3 0 2.6.6 3 1.2.7 1.2 3.6 1.2 4.7.1.4-.3 2 .1 3.6.9 2.8 1.4 3.1 1.4 4.4-.3 1.4-1.9 1.4-1.9 1.5 0 0 1.5.5 1.7 3.4 1.2 2-.4 3.7-.2 4.1.4.9 1.4 5.5 1.2 10.3-.4 2.2-.8 5.2-1.6 6.8-1.8 1.6-.1 3.4-.9 3.9-1.6.6-.7 2.5-1.3 4.2-1.5 1.8-.1 3.3-.5 3.3-1 0-.4 1-.7 2.3-.7 1.2 0 3.5-.7 5-1.5s3.4-1.2 4.1-.9c.8.3 1.6-.4 1.9-1.6.4-1.4 1.2-2 2.5-1.8 2 .3 2.2 0 2.2-3.2 0-2.4-4.5-2.8-5.4-.5-.7 1.9-5.3 1.5-6.7-.6-.7-1.1-1-.9-1.5.9-.5 1.7-1.1 2.1-2.3 1.6-.9-.4-2.7-.7-4.1-.8-3.2-.1-5.2-2.5-3.6-4.1.8-.9 1.6-.9 3-.1s2 .8 2.4-.3c.2-.7 1.3-2.2 2.3-3.2 1.3-1.3 1.9-3.3 1.9-6 0-3.7-.2-4-1.6-2.8-1 .8-1.8.9-2.2.2-.4-.5-1.4-.9-2.2-.7-.8.2-2.7.5-4.2.9-1.5.3-2.9.1-3.2-.4-.4-.5-1.8-.5-3.6.2-2.2.8-3.5.9-4.8.1-1.3-.8-1.9-.8-2.7.3-.8 1.1-1.6 1.1-4.3.1-2.9-1.1-3.5-1.1-4.6.5-1.6 2.1-2.7 2.2-2 .2.4-.9-.1-1.7-1.2-2.1-1.1-.3-2.7-1-3.6-1.5-2.4-1.2-5.6-1.1-6 .2-.2.7-1.4.2-3-1.2-1.8-1.6-3.8-2.3-7.2-2.4-2.5 0-4.6.2-4.6.6 0 .4-1.2.9-2.7 1.2-2.8.5-6.3-1.9-6.3-4.4 0-.6-.9-.1-2 1.2l-2 2.4-1.8-2.1c-1.2-1.4-2.4-1.9-3.7-1.4-1.1.4-2.4.6-3 .4-.5-.2-2.8-.6-4.9-.9-4.8-.7-5-.8-4.1-3.4.4-1.2 1.2-1.8 2.1-1.4.8.3 1.4-.1 1.4-1.1 0-1.9-.5-2-3.1-.5-1.1.5-1.7 1.4-1.4 1.9.3.6 0 .7-.8.4-.8-.3-1.8-.1-2.2.5-1.5 2.6-3.7 1.3-8.5-4.9-2.3-3-3.8-4.6-8.1-8.6-.9-.8-2.3-1.2-3.2-.8-1.2.4-2-.1-2.6-1.7-.6-1.4-1-1.8-1.1-.9 0 .8-.7.1-1.4-1.5-.7-1.7-2.3-4-3.4-5.3-1.1-1.3-1.8-3-1.5-3.7.2-.8-.2-2.4-1.1-3.7l-1.6-2.2v2.4c-.1 2.4-.1 2.4-1.5.6-.8-1.1-1.5-2.9-1.5-4.1 0-1.1-.6-3-1.4-4-.8-1.1-1.8-4.1-2.3-6.5-.6-3.2-1.1-4-1.6-2.7zm19.8 46.7c.3.5.1 1-.4 1-.6 0-1.1-.5-1.1-1 0-.6.2-1 .4-1 .3 0 .8.4 1.1 1zm2.2 1.2c-.3.8-.6.5-.6-.6-.1-1.1.2-1.7.5-1.3.3.3.4 1.2.1 1.9zm92.3 14.2c0 .2-.8 1-1.7 1.7-1.6 1.3-1.7 1.2-.4-.4 1.3-1.6 2.1-2.1 2.1-1.3zm-47.1 5.4c1.3.1 3-.3 3.7-.9 1.1-.9 1.4-.8 1.4.4 0 1.2 3.2 3 4.4 2.4.1-.1 1 .4 2 1.2.9.8 1.9 1.1 2.2.8.3-.3 1.7.6 3.1 2.1 1.7 1.9 2.3 2.1 1.9.9-.5-1.5 0-1.4 2.7.6 1.7 1.4 3.8 2.2 4.6 2 1-.4 1.1.1.6 1.8-1 3.3-1.3 3.5-3.4 2.2-1-.6-3.4-1-5.4-.9-2.1.1-3.7-.2-3.7-.7 0-.5-.8-.7-1.7-.6-3.5.3-5.2-.1-6.7-1.7-.9-.8-2.5-1.6-3.6-1.7-1.1-.1-2-.7-2-1.5 0-.9-.7-1.1-2.2-.7-1.7.6-2 .4-1.5-.9.4-.9.2-1.6-.3-1.6-1.2 0-1.3-5.3-.3-6.4.5-.4 1 .1 1.3 1.1.3 1 1.6 1.9 2.9 2.1zm42.5 14c-.1.2-1.7.1-3.4-.3-3.3-.7-3-2 .5-2.7 1.7-.3 3.9 2 2.9 3z"/><path d="M230 392c0 .5.5 1 1.1 1 .5 0 .7-.5.4-1-.3-.6-.8-1-1.1-1-.2 0-.4.4-.4 1zM167.8 416.9c-.9 2.2-4 7.7-7 12.3-3 4.6-7.3 11.2-9.5 14.6-3.9 6.1-4.5 6.5-11 8.8-3.7 1.3-8.4 3.2-10.3 4.3-7.8 4.3-30.2 13.1-41.5 16.4C75.9 477 67.9 478.9 44 484c-8 1.6-15.6 3.3-17 3.6-2.4.6-2.4.7 2.8 5.3 6.5 5.9 18.4 12.2 29.9 15.8l8.8 2.7 54.8.4c30.1.2 54.7-.1 54.7-.5s-.7-3.3-1.5-6.3c-2.3-8.4-4.5-27-4.5-37.8 0-5.3-.7-15.3-1.5-22.2-1.7-14.5-1.9-25.8-.5-29.4.5-1.4.6-2.6.1-2.6-.4 0-1.5 1.8-2.3 3.9zM308.2 414.2c-.7.7-2 1.3-3 1.3s-1.7.8-1.7 2c0 2.6 1.4 2.5 4.9-.3 1.9-1.5 2.6-2.6 2-3.2-.7-.7-1.4-.6-2.2.2zM338.7 416.6c-.3 1.6-.9 7.8-1.2 13.9-.8 15.1-4.1 43.6-6.5 57.4-1.1 6.2-2 14.2-2 17.8v6.4l57.3-.3c56.3-.4 57.3-.5 64.7-2.7 10.4-3.2 22.4-9.2 29.5-14.8l5.9-4.7-5.4-1.7c-3-1-9.5-2.9-14.5-4.4-23.5-7.1-33.5-10.9-62-23.3-8.8-3.8-23-9.3-31.5-12.2-8.5-2.9-16.3-6-17.2-6.8-1.8-1.5-12.8-20.2-12.8-21.8 0-.5-.9-2-1.9-3.3l-1.9-2.4-.5 2.9zM292 416c0 .5.5 1 1.1 1 .5 0 .7-.5.4-1-.3-.6-.8-1-1.1-1-.2 0-.4.4-.4 1zM182.1 431.9c2.8 3.8 15.2 14.3 23.4 19.7 3.3 2.2 8 5.4 10.5 7 19.4 13.2 23.8 15.8 19.3 11.6l-3.2-3 3.1-2.4c3.4-2.6 3.4-5.3.1-6.5-1-.4-2-.9-2.3-1.2-2.7-3.1-10.4-7.6-19-11.1-5.8-2.3-11.8-4.7-13.5-5.5-1.6-.7-4.5-1.9-6.4-2.6-1.9-.7-5.3-2.7-7.5-4.4-6.3-4.8-7.1-5-4.5-1.6zM318.8 437.2c-5.5 6.7-12.4 13.8-13.4 13.8-.5 0-3.6 2.7-6.9 6.1-5.6 5.7-21.6 18.9-22.9 18.9-.3 0-4.2 2.9-8.6 6.5-7.8 6.3-8 6.5-5.7 7.9 5.5 3.4 6.7 3.1 17.2-6.1 5.5-4.7 12.5-11.4 15.5-14.9s9.6-10.8 14.5-16.3c8.3-9.1 15.5-18.2 15.5-19.6 0-1.5-2.2 0-5.2 3.7z"/></svg>