<svg xmlns="http://www.w3.org/2000/svg" style="margin:auto;background:0 0;display:block;shape-rendering:auto" width="205" height="37" preserveAspectRatio="xMidYMid"><style>@keyframes breath-5f8e0724-d5da-49e6-9b38-d161380cbacc{0%{animation-timing-function:cubic-bezier(.9647,.2413,-.0705,.7911);transform:scale(.9099999999999999)}51%{animation-timing-function:cubic-bezier(.9226,.2631,-.0308,.7628);transform:scale(1.02994)}to{transform:scale(.9099999999999999)}}</style><g style="transform-origin:102.5px 18.5px;transform:scale(1)"><g style="transform:scale(.91);transform-origin:-85.21px -3.03152px;animation:1s linear -.612857s infinite normal forwards running breath-5f8e0724-d5da-49e6-9b38-d161380cbacc"><path d="M14.4-24.88q-5.58 0-5.58 10.77v2.84q0 5.11 1.48 8.01 1.47 2.9 4.35 2.9 3.96 0 7.27-7.7h.65l-.25 8.02h-.4q-.21-.39-.39-.55-.18-.17-.52-.17-.35 0-2.61.56-2.27.56-4.61.56-5.87 0-9.09-3.17-3.22-3.17-3.22-9.52t3.36-9.81q3.37-3.46 9.06-3.46 2.19 0 4.3.56 2.1.56 2.46.56.36 0 .54-.16.18-.16.4-.56h.4l.28 7.81h-.64q-1.62-3.63-3.33-5.56-1.71-1.93-3.91-1.93" fill="#ff0d0d" stroke-width="none" transform="translate(5.265 28.088)" style="fill:#ff0d0d" class="path"/></g><g style="transform:scale(.91);transform-origin:-63.659px 1.01849px;animation:1s linear -.565714s infinite normal forwards running breath-5f8e0724-d5da-49e6-9b38-d161380cbacc"><path d="M34.31.36q-4.65 0-6.97-2.39-2.32-2.4-2.32-6.66 0-4.27 2.61-6.54 2.61-2.27 6.64-2.27 8.17 0 7.85 8.21H31.97v1.41q0 3.52.9 5.32.9 1.8 3.13 1.8 4.18 0 5.47-4.46l.65.11q-.68 2.59-2.47 4.03Q37.87.36 34.31.36zM32-11.77v1.76h3.71v-1.76q0-2.92-.34-3.98T34-16.81q-1.02 0-1.51 1.13-.49 1.14-.49 3.91" fill="#ff0d0d" stroke-width="none" transform="translate(5.265 28.088)" style="fill:#00e2ff" class="path"/></g><g style="transform:scale(.91);transform-origin:-45.16px .838485px;animation:1s linear -.518571s infinite normal forwards running breath-5f8e0724-d5da-49e6-9b38-d161380cbacc"><path d="M55.44-16.13q-1.33 0-2.34 1.73-1.01 1.73-1.01 4.1v9.65h2.56V0H43.42v-.65h1.98v-15.84h-1.98v-.65h8.67v3.46q.47-1.84 1.8-2.83t3.03-.99q1.69 0 2.75.96 1.06.95 1.06 2.7 0 1.74-.79 2.68-.79.94-2.43.94-1.64 0-2.41-1.08-.78-1.08-.2-2.99h1.3q.9-1.84-.76-1.84" fill="#ff0d0d" stroke-width="none" transform="translate(5.265 28.088)" style="fill:#0eff00" class="path"/></g><g style="transform:scale(.91);transform-origin:-29.175px -1.95152px;animation:1s linear -.471429s infinite normal forwards running breath-5f8e0724-d5da-49e6-9b38-d161380cbacc"><path d="M63.04-5.15v-11.34h-1.98v-.65h1.98v-4.64l6.69-1.66v6.3h4.68v.65h-4.68v12.13q0 1.7.34 2.49.35.79 1.43.79t1.89-1.08q.81-1.08 1.06-2.95l.61.07q-.29 2.48-1.58 3.94Q72.18.36 69.19.36T64.62-.83q-1.58-1.19-1.58-4.32" fill="#ff0d0d" stroke-width="none" transform="translate(5.265 28.088)" style="fill:#ffb900" class="path"/></g><g style="transform:scale(.91);transform-origin:-16.435px -13.3815px;animation:1s linear -.424286s infinite normal forwards running breath-5f8e0724-d5da-49e6-9b38-d161380cbacc"><path d="M80.71-19.62q-1.91 0-2.72-.97-.81-.97-.81-2.41 0-1.44.89-2.38.88-.94 2.68-.94 1.8 0 2.73.85.94.85.94 2.41 0 1.57-.9 2.5-.9.94-2.81.94" fill="#ff0d0d" stroke-width="none" transform="translate(5.265 28.088)" style="fill:#f200ff" class="path"/></g><g style="transform:scale(.91);transform-origin:-16.54px 1.01849px;animation:1s linear -.377143s infinite normal forwards running breath-5f8e0724-d5da-49e6-9b38-d161380cbacc"><path d="M75.28-16.49v-.65h8.82V-.65h2.01V0H75.42v-.65h1.98v-15.84h-2.12" fill="#ff0d0d" stroke-width="none" transform="translate(5.265 28.088)" style="fill:#ff0d0d" class="path"/></g><g style="transform:scale(.91);transform-origin:-2.30503px -4.32652px;animation:1s linear -.33s infinite normal forwards running breath-5f8e0724-d5da-49e6-9b38-d161380cbacc"><path d="M97.74-27.22q-1.37 0-1.8 1.03-.43 1.03-.43 3.29v5.76h4.75v.65h-4.75V-.65h4.39V0H86.83v-.65h1.98v-15.84h-2.09v-.65h2.09v-.14q0-5.18 1.98-7.87 1.98-2.68 6.63-2.68 3.06 0 4.39 1.21 1.33 1.2 1.33 2.79 0 1.58-.83 2.37-.83.8-2.19.8-1.37 0-2.11-.71-.74-.7-.74-1.62 0-.91.22-1.78h1.37q.72-2.45-1.12-2.45" fill="#ff0d0d" stroke-width="none" transform="translate(5.265 28.088)" style="fill:#00e2ff" class="path"/></g><g style="transform:scale(.91);transform-origin:8.76497px -13.3815px;animation:1s linear -.282857s infinite normal forwards running breath-5f8e0724-d5da-49e6-9b38-d161380cbacc"><path d="M105.91-19.62q-1.91 0-2.72-.97-.81-.97-.81-2.41 0-1.44.89-2.38.88-.94 2.68-.94 1.8 0 2.73.85.94.85.94 2.41 0 1.57-.9 2.5-.9.94-2.81.94" fill="#ff0d0d" stroke-width="none" transform="translate(5.265 28.088)" style="fill:#0eff00" class="path"/></g><g style="transform:scale(.91);transform-origin:8.65997px 1.01849px;animation:1s linear -.235714s infinite normal forwards running breath-5f8e0724-d5da-49e6-9b38-d161380cbacc"><path d="M100.48-16.49v-.65h8.82V-.65h2.01V0h-10.69v-.65h1.98v-15.84h-2.12" fill="#ff0d0d" stroke-width="none" transform="translate(5.265 28.088)" style="fill:#ffb900" class="path"/></g><g style="transform:scale(.91);transform-origin:23.13px 1.01849px;animation:1s linear -.188571s infinite normal forwards running breath-5f8e0724-d5da-49e6-9b38-d161380cbacc"><path d="M122.11-16.85q-1.58 0-2.27 1.73-.68 1.73-.68 5.72v1.88q0 3.56.79 5.11.79 1.55 2.92 1.55 2.12 0 3.38-1.44 1.26-1.44 1.62-3.28l.65.07q-.68 3.1-2.52 4.47-1.87 1.4-5.15 1.4-4.17 0-6.41-2.25-2.23-2.25-2.23-6.59t2.54-6.68q2.54-2.34 7.07-2.34 3.21 0 4.9 1.25 1.69 1.24 1.69 3.11 0 1.87-.81 2.74-.81.86-2.23.86t-2.29-.76q-.86-.75-.86-2.23 0-.65.18-1.29h1.19q.25-.72.25-1.3 0-1.73-1.73-1.73" fill="#ff0d0d" stroke-width="none" transform="translate(5.265 28.088)" style="fill:#f200ff" class="path"/></g><g style="transform:scale(.91);transform-origin:42.065px 1.01849px;animation:1s linear -.141429s infinite normal forwards running breath-5f8e0724-d5da-49e6-9b38-d161380cbacc"><path d="M138.06-8.46h1.04v-2.77q0-3.42-.37-4.59-.38-1.17-1.46-1.17-.65 0-1.17.34-.52.34-.52.94 0 .59.21 1.2h.9q.29.76.29 1.82t-.9 1.84q-.9.77-2.27.77-3.09 0-3.09-2.99 0-4.43 7.52-4.43 4.28 0 5.92 1.46 1.64 1.46 1.64 5.35v7.31q0 1.87 1.04 1.87 1.23 0 1.44-3.71l.54.04q-.14 3.16-1.18 4.35-1.05 1.19-3.42 1.19-4.32 0-4.97-2.66-.47 1.36-1.41 2.01-.93.65-2.73.65-5.33 0-5.33-4.36 0-2.55 2.03-3.51 2.04-.95 6.25-.95zm-1.44 4.43q0 1.87.2 2.41t.75.54q.56 0 1.05-.92.48-.92.48-2.54v-3.34h-.25q-2.23 0-2.23 3.27v.58" fill="#ff0d0d" stroke-width="none" transform="translate(5.265 28.088)" style="fill:#ff0d0d" class="path"/></g><g style="transform:scale(.91);transform-origin:58.23px -1.95152px;animation:1s linear -.0942857s infinite normal forwards running breath-5f8e0724-d5da-49e6-9b38-d161380cbacc"><path d="M150.44-5.15v-11.34h-1.98v-.65h1.98v-4.64l6.7-1.66v6.3h4.68v.65h-4.68v12.13q0 1.7.34 2.49.34.79 1.42.79 1.08 0 1.89-1.08.81-1.08 1.07-2.95l.61.07q-.29 2.48-1.59 3.94Q159.59.36 156.6.36t-4.57-1.19q-1.59-1.19-1.59-4.32" fill="#ff0d0d" stroke-width="none" transform="translate(5.265 28.088)" style="fill:#00e2ff" class="path"/></g><g style="transform:scale(.91);transform-origin:74.331px 1.01849px;animation:1s linear -.0471429s infinite normal forwards running breath-5f8e0724-d5da-49e6-9b38-d161380cbacc"><path d="M172.3.36q-4.65 0-6.97-2.39-2.32-2.4-2.32-6.66 0-4.27 2.61-6.54 2.61-2.27 6.64-2.27 8.17 0 7.85 8.21h-10.15v1.41q0 3.52.9 5.32.9 1.8 3.13 1.8 4.17 0 5.47-4.46l.65.11q-.69 2.59-2.47 4.03Q175.86.36 172.3.36zm-2.31-12.13v1.76h3.71v-1.76q0-2.92-.34-3.98t-1.37-1.06q-1.03 0-1.51 1.13-.49 1.14-.49 3.91" fill="#ff0d0d" stroke-width="none" transform="translate(5.265 28.088)" style="fill:#0eff00" class="path"/></g><g style="transform:scale(.91);transform-origin:91.855px .983485px;animation:1s linear 0s infinite normal forwards running breath-5f8e0724-d5da-49e6-9b38-d161380cbacc"><path d="M182.66.36h-.43v-6.44h.43q.94 3.13 2.52 4.39 1.59 1.26 3.96 1.26 3.68 0 3.68-2.34 0-1.01-.9-1.51-1.41-.8-3.6-1.23-2.45-.65-4.11-1.73-1.98-1.29-1.98-4.1 0-2.81 1.73-4.48 1.73-1.68 4.61-1.68 1.76 0 3.63.83.69.29 1.05.29.36 0 .61-.25t.61-.94h.4v5.51h-.43q-1.84-4.68-5.69-4.68-1.69 0-2.52.59-.83.6-.83 1.5 0 .54.25.84.25.31.4.45.14.15.47.31.32.16.54.25.21.09.66.24.45.14.67.18 2.45.61 3.53 1.06 1.08.45 2.05 1.1 1.98 1.36 1.98 4.41 0 3.04-1.8 4.6-1.8 1.57-4.93 1.57-2.24 0-4.32-1.04-.44-.29-.69-.29-.79 0-1.55 1.33" fill="#ff0d0d" stroke-width="none" transform="translate(5.265 28.088)" style="fill:#ffb900" class="path"/></g></g></svg>