<svg xmlns="http://www.w3.org/2000/svg" style="margin:auto;background:0 0;display:block;shape-rendering:auto" width="140" height="42" preserveAspectRatio="xMidYMid"><style>@keyframes breath-333aa2b1-464c-4786-92ee-f0803c1d9adb{0%{animation-timing-function:cubic-bezier(.9647,.2413,-.0705,.7911);transform:scale(.9099999999999999)}51%{animation-timing-function:cubic-bezier(.9226,.2631,-.0308,.7628);transform:scale(1.02994)}to{transform:scale(.9099999999999999)}}</style><g style="transform-origin:70px 21px;transform:scale(1)"><g style="transform:scale(.91);transform-origin:-46.205px -2.87788px;animation:1s linear -.565714s infinite normal forwards running breath-333aa2b1-464c-4786-92ee-f0803c1d9adb"><path d="M14.4-24.88q-5.58 0-5.58 10.77v2.84q0 5.11 1.48 8.01 1.47 2.9 4.35 2.9 3.96 0 7.27-7.7h.65l-.25 8.02h-.4q-.21-.39-.39-.55-.18-.17-.52-.17-.35 0-2.61.56-2.27.56-4.61.56-5.87 0-9.09-3.17-3.22-3.17-3.22-9.52t3.36-9.81q3.37-3.46 9.06-3.46 2.19 0 4.3.56 2.1.56 2.46.56.36 0 .54-.16.18-.16.4-.56h.4l.28 7.81h-.64q-1.62-3.63-3.33-5.56-1.71-1.93-3.91-1.93" fill="#fd3b3b" stroke-width="none" transform="translate(11.77 30.742)" style="fill:#fd3b3b" class="path"/></g><g style="transform:scale(.91);transform-origin:-23.975px 1.17212px;animation:1s linear -.471429s infinite normal forwards running breath-333aa2b1-464c-4786-92ee-f0803c1d9adb"><path d="M36.47-7.09v-3.06q0-3.49-.38-5.1-.38-1.6-1.75-1.6-.79 0-1.27.45-.49.45-.71 1.5-.32 1.62-.32 4.93v2.81q0 3.92.23 4.71.24.79.49 1.3.4.86 1.55.86 1.4 0 1.83-1.62.33-1.15.33-5.18zM34.24.36q-4.5 0-6.81-2.3-2.3-2.31-2.3-6.61 0-4.3 2.46-6.62 2.47-2.33 6.93-2.33 4.47 0 6.66 2.15 2.2 2.14 2.2 6.53 0 9.18-9.14 9.18" fill="#fd3b3b" stroke-width="none" transform="translate(11.77 30.742)" style="fill:#00e2ff" class="path"/></g><g style="transform:scale(.91);transform-origin:-3.54498px -3.57788px;animation:1s linear -.377143s infinite normal forwards running breath-333aa2b1-464c-4786-92ee-f0803c1d9adb"><path d="M51.7-7.45q0 3.78.39 5.02.4 1.24 1.46 1.24t1.84-.93q.77-.94.77-2.78v-7.84q0-1.55-.61-2.63-.61-1.08-1.8-1.08t-1.62 1.58q-.43 1.59-.43 5.55v1.87zM64.62 0h-7.99l-.4-2.52Q55.01.36 51.26.36q-3.09 0-4.8-2.23t-1.71-6.66q0-8.97 7.13-8.97 3.16 0 4.17 1.77v-10.62h-2.19V-27h9V-.65h1.76V0" fill="#fd3b3b" stroke-width="none" transform="translate(11.77 30.742)" style="fill:#49ff00" class="path"/></g><g style="transform:scale(.91);transform-origin:12.71px -13.2279px;animation:1s linear -.282857s infinite normal forwards running breath-333aa2b1-464c-4786-92ee-f0803c1d9adb"><path d="M70.85-19.62q-1.91 0-2.72-.97-.81-.97-.81-2.41 0-1.44.88-2.38t2.68-.94q1.8 0 2.74.85.94.85.94 2.41 0 1.57-.9 2.5-.9.94-2.81.94" fill="#fd3b3b" stroke-width="none" transform="translate(11.77 30.742)" style="fill:#ff00fb" class="path"/></g><g style="transform:scale(.91);transform-origin:12.6px 1.17212px;animation:1s linear -.188571s infinite normal forwards running breath-333aa2b1-464c-4786-92ee-f0803c1d9adb"><path d="M65.41-16.49v-.65h8.82V-.65h2.02V0H65.56v-.65h1.98v-15.84h-2.13" fill="#fd3b3b" stroke-width="none" transform="translate(11.77 30.742)" style="fill:#f5c80a" class="path"/></g><g style="transform:scale(.91);transform-origin:29.63px .992117px;animation:1s linear -.0942857s infinite normal forwards running breath-333aa2b1-464c-4786-92ee-f0803c1d9adb"><path d="M77.04-16.49v-.65h8.68v3.32q.57-1.66 1.76-2.67t3.6-1.01q5.58 0 5.58 6.02V-.65h2.02V0H88.49v-.65h1.47v-11.7q0-2.16-.28-2.79-.29-.63-1.05-.63-1.15 0-2.03 1.51-.88 1.52-.88 3.68v9.93h1.54V0H77.04v-.65h1.98v-15.84h-1.98" fill="#fd3b3b" stroke-width="none" transform="translate(11.77 30.742)" style="fill:#fd3b3b" class="path"/></g><g style="transform:scale(.91);transform-origin:49.95px 3.15212px;animation:1s linear 0s infinite normal forwards running breath-333aa2b1-464c-4786-92ee-f0803c1d9adb"><path d="m113.58-19.01 1.01-.61q.21-1.12-.87-1.12-1.54 0-1.54 2.38 0 .94.25 2.16 2.73 1.84 2.73 4.7 0 2.86-1.98 4.44-1.98 1.59-5.36 1.59-1.4 0-2.92-.29-1.58 1.01-1.58 1.51 0 .51 2.3.51h3.68q8.17 0 8.17 5.86 0 3.17-2.47 5.03Q112.54 9 107.32 9q-8.9 0-8.9-3.85 0-2.09 2.78-2.88l2.16.97q-.29 1.04-.29 1.98 0 3.1 4.61 3.1 2.8 0 4.32-1.05 1.51-1.04 1.51-2.59 0-1.55-.92-2.07-.92-.52-3.65-.52h-3.5q-2.91 0-4.17-.97-1.26-.98-1.26-2.4t.9-2.37q.9-.96 3.2-2.36-4.17-1.19-4.17-5.47 0-2.7 1.94-4.36 1.94-1.66 5.83-1.66 2.34 0 4 .9-.22-.97-.22-1.76 0-2.02 1.08-2.92 1.08-.9 2.41-.9 1.34 0 2.15.71.81.7.81 1.92 0 1.23-.65 1.82-.65.59-1.57.59t-1.51-.48q-.59-.49-.63-1.39zm-7.63 6.73v1.95q0 2.41.41 3.27.42.87 1.26.87.85 0 1.23-.85.37-.84.37-3.47v-1.77q0-2.8-.36-3.69-.36-.88-1.2-.88-.85 0-1.28.92-.43.92-.43 3.65" fill="#fd3b3b" stroke-width="none" transform="translate(11.77 30.742)" style="fill:#00e2ff" class="path"/></g></g></svg>