<svg xmlns="http://www.w3.org/2000/svg" style="margin:auto;background:0 0;display:block;shape-rendering:auto" width="196" height="33" preserveAspectRatio="xMidYMid"><style>@keyframes breath-333aa2b1-464c-4786-92ee-f0803c1d9adb{0%{animation-timing-function:cubic-bezier(.9647,.2413,-.0705,.7911);transform:scale(.9099999999999999)}51%{animation-timing-function:cubic-bezier(.9226,.2631,-.0308,.7628);transform:scale(1.02994)}to{transform:scale(.9099999999999999)}}</style><g style="transform-origin:98px 16.5px;transform:scale(1.02857)"><g style="transform:scale(.91);transform-origin:-71.325px -2.92024px;animation:1s linear -.594s infinite normal forwards running breath-333aa2b1-464c-4786-92ee-f0803c1d9adb"><path d="M.74-23.73v-.77h18.2l.35 6.93h-.63q-1.47-3.54-3.08-4.85-1.61-1.31-4.73-1.31H9.63v10.81h1.19q1.64 0 2.76-1.24 1.12-1.24 1.58-3.34h.52v10.36h-.59q-.63-2.63-1.7-3.75-1.07-1.12-2.92-1.12h-.84V-.77h1.33q3.22 0 5.47-1.93 2.26-1.92 3.1-4.93h.7L19.95 0H.74v-.77H2.8v-22.96H.74" fill="#fd3b3b" stroke-width="none" transform="translate(16.19 25.83)" style="fill:#fd3b3b" class="path"/></g><g style="transform:scale(.91);transform-origin:-49.61px -3.62024px;animation:1s linear -.528s infinite normal forwards running breath-333aa2b1-464c-4786-92ee-f0803c1d9adb"><path d="M29.3-7.25q0 3.68.38 4.89.39 1.2 1.42 1.2 1.03 0 1.78-.91.76-.91.76-2.69v-7.63q0-1.51-.6-2.56Q32.45-16 31.29-16q-1.15 0-1.57 1.54-.42 1.54-.42 5.39v1.82zM41.86 0h-7.77l-.38-2.45Q32.52.35 28.88.35q-3.01 0-4.68-2.17-1.66-2.17-1.66-6.47 0-8.72 6.93-8.72 3.08 0 4.06 1.71v-10.32H31.4v-.63h8.75V-.63h1.71V0" fill="#fd3b3b" stroke-width="none" transform="translate(16.19 25.83)" style="fill:#00e2ff" class="path"/></g><g style="transform:scale(.91);transform-origin:-29.08px 1.17476px;animation:1s linear -.462s infinite normal forwards running breath-333aa2b1-464c-4786-92ee-f0803c1d9adb"><path d="M63.07-.63V0h-7.98l-.38-2.56q-.56 1.4-1.67 2.16-1.1.75-3.27.75-5.42 0-5.42-5.85v-10.53h-1.96v-.63h8.47v12q0 2.1.29 2.77.3.66 1.19.66.9 0 1.6-1.08.7-1.09.7-3.01v-10.71h-1.61v-.63h8.12V-.63h1.92" fill="#fd3b3b" stroke-width="none" transform="translate(16.19 25.83)" style="fill:#49ff00" class="path"/></g><g style="transform:scale(.91);transform-origin:-9.93503px .99976px;animation:1s linear -.396s infinite normal forwards running breath-333aa2b1-464c-4786-92ee-f0803c1d9adb"><path d="M73.57-16.38q-1.54 0-2.2 1.68-.67 1.68-.67 5.56v1.82q0 3.47.77 4.97.77 1.51 2.84 1.51 2.06 0 3.28-1.4 1.23-1.4 1.58-3.19l.63.07q-.66 3.01-2.45 4.34Q75.53.35 72.34.35q-4.06 0-6.22-2.19-2.17-2.19-2.17-6.4 0-4.22 2.46-6.5 2.47-2.27 6.88-2.27 3.12 0 4.76 1.21 1.65 1.2 1.65 3.02t-.79 2.66q-.79.84-2.17.84t-2.22-.73q-.85-.74-.85-2.17 0-.63.18-1.26H75q.25-.7.25-1.26 0-1.68-1.68-1.68" fill="#fd3b3b" stroke-width="none" transform="translate(16.19 25.83)" style="fill:#ff00fb" class="path"/></g><g style="transform:scale(.91);transform-origin:8.47497px .99976px;animation:1s linear -.33s infinite normal forwards running breath-333aa2b1-464c-4786-92ee-f0803c1d9adb"><path d="M89.08-8.23h1.01v-2.69q0-3.33-.37-4.46-.36-1.14-1.41-1.14-.64 0-1.14.33-.51.33-.51.91 0 .58.21 1.17h.88q.28.74.28 1.77t-.88 1.79q-.87.75-2.2.75-3.01 0-3.01-2.91 0-4.3 7.31-4.3 4.17 0 5.76 1.42 1.59 1.41 1.59 5.19v7.11q0 1.82 1.02 1.82 1.19 0 1.4-3.61l.52.04q-.14 3.08-1.15 4.23Q97.37.35 95.06.35q-4.2 0-4.83-2.59-.45 1.33-1.36 1.96-.92.63-2.67.63-5.17 0-5.17-4.24 0-2.48 1.97-3.41 1.98-.93 6.08-.93zm-1.41 4.31q0 1.82.2 2.34.19.53.73.53.55 0 1.02-.89.47-.9.47-2.47v-3.26h-.25q-2.17 0-2.17 3.19v.56" fill="#fd3b3b" stroke-width="none" transform="translate(16.19 25.83)" style="fill:#f5c80a" class="path"/></g><g style="transform:scale(.91);transform-origin:24.19px -1.89024px;animation:1s linear -.264s infinite normal forwards running breath-333aa2b1-464c-4786-92ee-f0803c1d9adb"><path d="M101.11-5.01v-11.02h-1.92v-.63h1.92v-4.52l6.52-1.61v6.13h4.54v.63h-4.54v11.79q0 1.65.33 2.42t1.38.77q1.05 0 1.84-1.05t1.03-2.87l.6.07q-.28 2.41-1.54 3.83Q110 .35 107.1.35t-4.44-1.16q-1.55-1.15-1.55-4.2" fill="#fd3b3b" stroke-width="none" transform="translate(16.19 25.83)" style="fill:#fd3b3b" class="path"/></g><g style="transform:scale(.91);transform-origin:36.58px -13.0052px;animation:1s linear -.198s infinite normal forwards running breath-333aa2b1-464c-4786-92ee-f0803c1d9adb"><path d="M118.3-19.08q-1.85 0-2.64-.94-.79-.95-.79-2.35 0-1.4.86-2.31.86-.91 2.61-.91t2.66.83q.91.82.91 2.34t-.88 2.43q-.87.91-2.73.91" fill="#fd3b3b" stroke-width="none" transform="translate(16.19 25.83)" style="fill:#00e2ff" class="path"/></g><g style="transform:scale(.91);transform-origin:36.475px .99976px;animation:1s linear -.132s infinite normal forwards running breath-333aa2b1-464c-4786-92ee-f0803c1d9adb"><path d="M113.02-16.03v-.63h8.57V-.63h1.96V0h-10.39v-.63h1.92v-15.4h-2.06" fill="#fd3b3b" stroke-width="none" transform="translate(16.19 25.83)" style="fill:#49ff00" class="path"/></g><g style="transform:scale(.91);transform-origin:51.595px .99976px;animation:1s linear -.066s infinite normal forwards running breath-333aa2b1-464c-4786-92ee-f0803c1d9adb"><path d="M135.56-6.9v-2.97q0-3.4-.37-4.95-.37-1.56-1.7-1.56-.77 0-1.24.44-.47.43-.69 1.45-.31 1.57-.31 4.79v2.73q0 3.82.23 4.59t.47 1.26q.39.84 1.51.84 1.36 0 1.78-1.58.32-1.12.32-5.04zM133.39.35q-4.38 0-6.62-2.24t-2.24-6.42q0-4.19 2.4-6.44 2.4-2.26 6.74-2.26 4.33 0 6.47 2.08 2.14 2.08 2.14 6.35 0 8.93-8.89 8.93" fill="#fd3b3b" stroke-width="none" transform="translate(16.19 25.83)" style="fill:#ff00fb" class="path"/></g><g style="transform:scale(.91);transform-origin:72.03px .82476px;animation:1s linear 0s infinite normal forwards running breath-333aa2b1-464c-4786-92ee-f0803c1d9adb"><path d="M143.32-16.03v-.63h8.44v3.22q.56-1.61 1.71-2.59 1.16-.98 3.5-.98 5.43 0 5.43 5.84V-.63h1.96V0h-9.9v-.63h1.43v-11.38q0-2.1-.28-2.71-.28-.61-1.02-.61-1.12 0-1.97 1.47-.86 1.47-.86 3.57v9.66h1.51V0h-9.95v-.63h1.93v-15.4h-1.93" fill="#fd3b3b" stroke-width="none" transform="translate(16.19 25.83)" style="fill:#f5c80a" class="path"/></g></g></svg>