<svg xmlns="http://www.w3.org/2000/svg" style="margin:auto;background:0 0;display:block;shape-rendering:auto" width="196" height="33" preserveAspectRatio="xMidYMid"><style>@keyframes breath-333aa2b1-464c-4786-92ee-f0803c1d9adb{0%{animation-timing-function:cubic-bezier(.9647,.2413,-.0705,.7911);transform:scale(.9099999999999999)}51%{animation-timing-function:cubic-bezier(.9226,.2631,-.0308,.7628);transform:scale(1.02994)}to{transform:scale(.9099999999999999)}}</style><g style="transform-origin:98px 16.5px;transform:scale(1)"><g style="transform:scale(.91);transform-origin:-83.161px -2.93038px;animation:1s linear -.6s infinite normal forwards running breath-333aa2b1-464c-4786-92ee-f0803c1d9adb"><path d="M.76-24.41v-.79h18.72l.36 7.13h-.65q-1.51-3.64-3.17-4.99t-4.86-1.35H9.9v11.13h1.22q1.7 0 2.85-1.28 1.15-1.28 1.62-3.44h.54v10.66h-.61q-.65-2.7-1.75-3.86-1.1-1.15-3.01-1.15H9.9V-.79h1.37q3.31 0 5.63-1.98t3.19-5.08h.72L20.52 0H.76v-.79h2.12v-23.62H.76" fill="#fd3b3b" stroke-width="none" transform="translate(4.054 26.17)" style="fill:#fd3b3b" class="path"/></g><g style="transform:scale(.91);transform-origin:-60.776px 1.09962px;animation:1s linear -.54s infinite normal forwards running breath-333aa2b1-464c-4786-92ee-f0803c1d9adb"><path d="m32.11-16.49 3.57 5.87 4.24-5.87h-2.59v-.65h5.37v.65h-1.88l-4.68 6.63 5.87 9.21h1.87V0H31.86v-.65h2.56l-3.96-6.48-4.11 6.48h2.38V0h-5.65v-.65h2.37l4.57-7.2-5.47-8.64h-2.09v-.65h12.17v.65h-2.52" fill="#fd3b3b" stroke-width="none" transform="translate(4.054 26.17)" style="fill:#00e2ff" class="path"/></g><g style="transform:scale(.91);transform-origin:-39.661px 5.20462px;animation:1s linear -.48s infinite normal forwards running breath-333aa2b1-464c-4786-92ee-f0803c1d9adb"><path d="M57.38-9.68q0-3.71-.36-4.99-.36-1.28-1.4-1.28t-1.87 1.35q-.83 1.35-.83 3.62v6.59q0 1.55.61 2.63.61 1.08 1.8 1.08t1.62-1.59q.43-1.58.43-5.54v-1.87zm-13.06-7.46h8.53v2.85q1.4-3.21 4.97-3.21 3.09 0 4.8 2.24 1.71 2.23 1.71 6.76 0 4.54-1.85 6.7Q60.62.36 56.92.36q-1.73 0-2.6-.43-.86-.43-1.4-1.33v9.32h4.64v.65H44.24v-.65h1.98v-24.41h-1.9v-.65" fill="#fd3b3b" stroke-width="none" transform="translate(4.054 26.17)" style="fill:#49ff00" class="path"/></g><g style="transform:scale(.91);transform-origin:-19.7996px 1.09962px;animation:1s linear -.42s infinite normal forwards running breath-333aa2b1-464c-4786-92ee-f0803c1d9adb"><path d="M74.88.36q-4.64 0-6.97-2.39-2.32-2.4-2.32-6.66 0-4.27 2.61-6.54 2.61-2.27 6.64-2.27 8.18 0 7.85 8.21H72.54v1.41q0 3.52.9 5.32.9 1.8 3.13 1.8 4.18 0 5.47-4.46l.65.11q-.68 2.59-2.46 4.03Q78.44.36 74.88.36zm-2.3-12.13v1.76h3.7v-1.76q0-2.92-.34-3.98t-1.37-1.06q-1.02 0-1.51 1.13-.48 1.14-.48 3.91" fill="#fd3b3b" stroke-width="none" transform="translate(4.054 26.17)" style="fill:#ff00fb" class="path"/></g><g style="transform:scale(.91);transform-origin:-1.30101px .919622px;animation:1s linear -.36s infinite normal forwards running breath-333aa2b1-464c-4786-92ee-f0803c1d9adb"><path d="M96.01-16.13q-1.33 0-2.34 1.73-1.01 1.73-1.01 4.1v9.65h2.56V0H83.99v-.65h1.98v-15.84h-1.98v-.65h8.67v3.46q.47-1.84 1.8-2.83 1.34-.99 3.03-.99 1.69 0 2.75.96 1.06.95 1.06 2.7 0 1.74-.79 2.68-.79.94-2.43.94-1.64 0-2.41-1.08-.77-1.08-.2-2.99h1.3q.9-1.84-.76-1.84" fill="#fd3b3b" stroke-width="none" transform="translate(4.054 26.17)" style="fill:#f5c80a" class="path"/></g><g style="transform:scale(.91);transform-origin:13.244px -13.3004px;animation:1s linear -.3s infinite normal forwards running breath-333aa2b1-464c-4786-92ee-f0803c1d9adb"><path d="M107.1-19.62q-1.91 0-2.72-.97-.81-.97-.81-2.41 0-1.44.88-2.38.89-.94 2.69-.94 1.8 0 2.73.85.94.85.94 2.41 0 1.57-.9 2.5-.9.94-2.81.94" fill="#fd3b3b" stroke-width="none" transform="translate(4.054 26.17)" style="fill:#fd3b3b" class="path"/></g><g style="transform:scale(.91);transform-origin:13.134px 1.09962px;animation:1s linear -.24s infinite normal forwards running breath-333aa2b1-464c-4786-92ee-f0803c1d9adb"><path d="M101.66-16.49v-.65h8.82V-.65h2.02V0h-10.69v-.65h1.98v-15.84h-2.13" fill="#fd3b3b" stroke-width="none" transform="translate(4.054 26.17)" style="fill:#00e2ff" class="path"/></g><g style="transform:scale(.91);transform-origin:28.01px 1.09962px;animation:1s linear -.18s infinite normal forwards running breath-333aa2b1-464c-4786-92ee-f0803c1d9adb"><path d="M122.69.36q-4.65 0-6.97-2.39-2.32-2.4-2.32-6.66 0-4.27 2.61-6.54 2.61-2.27 6.64-2.27 8.17 0 7.85 8.21h-10.15v1.41q0 3.52.9 5.32.9 1.8 3.13 1.8 4.18 0 5.47-4.46l.65.11q-.68 2.59-2.47 4.03-1.78 1.44-5.34 1.44zm-2.31-12.13v1.76h3.71v-1.76q0-2.92-.34-3.98t-1.37-1.06q-1.02 0-1.51 1.13-.49 1.14-.49 3.91" fill="#fd3b3b" stroke-width="none" transform="translate(4.054 26.17)" style="fill:#49ff00" class="path"/></g><g style="transform:scale(.91);transform-origin:48.739px .919622px;animation:1s linear -.12s infinite normal forwards running breath-333aa2b1-464c-4786-92ee-f0803c1d9adb"><path d="M131.87-16.49v-.65h8.67v3.32q.58-1.66 1.77-2.67t3.6-1.01q5.58 0 5.58 6.02V-.65h2.01V0h-10.18v-.65h1.47v-11.7q0-2.16-.29-2.79-.28-.63-1.04-.63-1.15 0-2.03 1.51-.89 1.52-.89 3.68v9.93h1.55V0h-10.22v-.65h1.98v-15.84h-1.98" fill="#fd3b3b" stroke-width="none" transform="translate(4.054 26.17)" style="fill:#ff00fb" class="path"/></g><g style="transform:scale(.91);transform-origin:68.359px 1.09962px;animation:1s linear -.06s infinite normal forwards running breath-333aa2b1-464c-4786-92ee-f0803c1d9adb"><path d="M164.05-16.85q-1.58 0-2.27 1.73-.68 1.73-.68 5.72v1.88q0 3.56.79 5.11.79 1.55 2.92 1.55 2.12 0 3.38-1.44 1.26-1.44 1.62-3.28l.65.07q-.68 3.1-2.52 4.47-1.87 1.4-5.15 1.4-4.17 0-6.41-2.25-2.23-2.25-2.23-6.59t2.54-6.68q2.54-2.34 7.07-2.34 3.21 0 4.9 1.25 1.69 1.24 1.69 3.11 0 1.87-.81 2.74-.81.86-2.23.86t-2.29-.76q-.86-.75-.86-2.23 0-.65.18-1.29h1.19q.25-.72.25-1.3 0-1.73-1.73-1.73" fill="#fd3b3b" stroke-width="none" transform="translate(4.054 26.17)" style="fill:#f5c80a" class="path"/></g><g style="transform:scale(.91);transform-origin:86.15px 1.09962px;animation:1s linear 0s infinite normal forwards running breath-333aa2b1-464c-4786-92ee-f0803c1d9adb"><path d="M180.83.36q-4.65 0-6.97-2.39-2.32-2.4-2.32-6.66 0-4.27 2.61-6.54 2.61-2.27 6.64-2.27 8.17 0 7.85 8.21h-10.15v1.41q0 3.52.9 5.32.9 1.8 3.13 1.8 4.18 0 5.47-4.46l.65.11q-.68 2.59-2.47 4.03-1.78 1.44-5.34 1.44zm-2.31-12.13v1.76h3.71v-1.76q0-2.92-.34-3.98t-1.37-1.06q-1.02 0-1.51 1.13-.49 1.14-.49 3.91" fill="#fd3b3b" stroke-width="none" transform="translate(4.054 26.17)" style="fill:#fd3b3b" class="path"/></g></g></svg>