<svg xmlns="http://www.w3.org/2000/svg" style="margin:auto;background:0 0;display:block;shape-rendering:auto" width="178" height="75" preserveAspectRatio="xMidYMid"><style>@keyframes breath-2e1569fd-c2d8-4848-bed3-237d9330fc4e{0%{animation-timing-function:cubic-bezier(.9647,.2413,-.0705,.7911);transform:scale(.9099999999999999)}51%{animation-timing-function:cubic-bezier(.9226,.2631,-.0308,.7628);transform:scale(1.02994)}to{transform:scale(.9099999999999999)}}</style><g style="transform-origin:89px 37.5px;transform:scale(1.025)"><g style="transform:scale(.91);transform-origin:-60px -5.25879px;animation:.641026s linear -.317308s infinite normal forwards running breath-2e1569fd-c2d8-4848-bed3-237d9330fc4e"><path d="M20.56-33.52q.32 0 1.2.64.88.64 1.84.64h.08q2.72 0 4.32-2.16t1.76-4.32l.24-2.16q0-3.04-.92-5.24t-2.12-3.28q-1.2-1.08-2.8-1.64-2-.8-4.2-.8t-3.56.44q-1.36.44-1.52.84l-.08.48q-.72 10.8-.72 19.32t.28 14.68q.28 6.16.56 9.48.28 3.32.28 3.64 0 2-3.52 3.2-3.52 1.2-6.96 1.2-1.6 0-1.6-.8 0-.24.24-1.12Q4.88-4 4.88-33.2q0-17.2-2.32-19.68-.48-.48-.48-1t1.16-1.16q1.16-.64 6.52-1.48 5.36-.84 11.36-.84 9.44 0 14.2 5.12t4.76 12.2q0 7.08-3.88 12.28-3.88 5.2-10.12 5.2-2 0-4-.72-4-1.44-4-6 0-.96.64-2.6.64-1.64 1.84-1.64" fill="#2477ff" stroke-width="none" transform="translate(7.92 60.201)" style="fill:#2477ff" class="path"/></g><g style="transform:scale(.91);transform-origin:-18.2px -5.57879px;animation:.641026s linear -.211538s infinite normal forwards running breath-2e1569fd-c2d8-4848-bed3-237d9330fc4e"><path d="M62.8-45.84Q56.48-37.92 53.68-30h.08q11.12 0 12.76.04 1.64.04 1.8-.12.16-.16.24-.4-1.36-9.84-2.16-13.4-.8-3.56-1.6-3.56t-2 1.6zM55.68-8.16l1.76-.32q.8 0 .8.88 0 2.8-1.12 4.72t-2.8 2.72Q51.6 1.2 49.68 1.2q-3.68 0-5.52-2.76-1.84-2.76-1.84-8.32 0-5.56 3.04-14.44h-4.64q-.88 0-.88-.88t1.36-2.84Q42.56-30 44.08-30h3.6q5.68-12.64 13.36-21.84 2-2.4 4.92-4.48 2.92-2.08 4.52-2.08 1.6 0 2.4 1.44 2.08 3.36 4.88 24.56.96 9.12 3.32 18.84t4.36 11.32q.48.32.48.8 0 1.2-3.4 2.24-3.4 1.04-5.2 1.04-1.8 0-2.76-.44-.96-.44-1.2-.92-1.44-3.12-2.88-14.88L70-18.16q-.32-3.76-.64-5.68l-.56-.4-16.72-.08q-.96 4.08-.96 7.12t.2 4.44q.2 1.4 1.32 3t3.04 1.6" fill="#2477ff" stroke-width="none" transform="translate(7.92 60.201)" style="fill:#ff3220" class="path"/></g><g style="transform:scale(.91);transform-origin:26.28px -5.13879px;animation:.641026s linear -.105769s infinite normal forwards running breath-2e1569fd-c2d8-4848-bed3-237d9330fc4e"><path d="m89.52-13.92.56-22.48q0-5.2-.24-8.56-.4-6-1.36-7.52l-.32-.48q-.4-.32-.4-.8 0-1.52 4-2.44 4-.92 6.72-.92 2.72 0 2.72 1.52l-.08.88Q100-46.8 99.76-35.96q-.24 10.84-.24 14.2 0 3.36.24 5.6.24 2.24.28 2.6.04.36.4 1.36.36 1 .92 1.8 1.44 1.92 4.08 1.92t4.44-1.2q1.8-1.2 2.68-2.96 1.84-3.76 2.24-6.48l.16-1.2q.4-5.68.4-13.44t-.08-10.16q-.08-2.4-.24-3.96-.16-1.56-.28-2.76-.12-1.2-.2-1.88-.08-.68-.08-.76 0-.88.88-1.44 1.36-1.04 4.2-1.76t5.08-.72q2.24 0 2.24 1.04 0 .16-.4 2.64-1.76 10.88-1.76 30.24 0 14.32 1.92 20.4.32.96.32 1.32 0 .36-.64.92-2.4 1.84-6.36 1.84-3.96 0-4.28-2-.4-1.04-.48-4.16l-.08-.96q0-.72-.32-.72l-.88.56q-1.52 2.56-3.52 4.28-2 1.72-3.84 2.36-2.64.96-5.16.96T96.36.2q-2.52-1.32-3.76-3.08-1.24-1.76-2.04-4.16-1.04-3.44-1.04-6.88" fill="#2477ff" stroke-width="none" transform="translate(7.92 60.201)" style="fill:#ffbc00" class="path"/></g><g style="transform:scale(.91);transform-origin:66.28px -5.97879px;animation:.641026s linear 0s infinite normal forwards running breath-2e1569fd-c2d8-4848-bed3-237d9330fc4e"><path d="m153.76-.08-4.56-.08h-1.92l-14.56.72q-1.2 0-1.2-.8 0-.24.24-1.12.8-1.84 1.16-11.68.36-9.84.36-17.96 0-8.12-.32-13.16-.48-7.6-1.6-9.12-.88-1.12-.88-1.44 0-1.28 4.32-2.24 4.32-.96 6.2-.96t2.36.2q.48.2.48.84 0 .64-.32 4.08-.8 10.16-.8 23.64t.64 21.56q0 .88 1.52 1.52t3.76.64q7.84 0 7.84-12.08 0-3.36-.36-4.16-.36-.8-.36-1.04 0-.8 1.12-.8.88 0 2.36.88t2.44 2.2q.96 1.32 1.76 4.16t.8 6.68q0 9.52-2.32 9.52h-8.16" fill="#2477ff" stroke-width="none" transform="translate(7.92 60.201)" style="fill:#00e677" class="path"/></g></g></svg>