<svg xmlns="http://www.w3.org/2000/svg" style="margin:auto;background:0 0;display:block;shape-rendering:auto" width="143" height="42" preserveAspectRatio="xMidYMid"><style>@keyframes breath-5f8e0724-d5da-49e6-9b38-d161380cbacc{0%{animation-timing-function:cubic-bezier(.9647,.2413,-.0705,.7911);transform:scale(.9099999999999999)}51%{animation-timing-function:cubic-bezier(.9226,.2631,-.0308,.7628);transform:scale(1.02994)}to{transform:scale(.9099999999999999)}}</style><g style="transform-origin:71.5px 21px;transform:scale(1)"><g style="transform:scale(.91);transform-origin:-56.645px -2.9708px;animation:1s linear -.586667s infinite normal forwards running breath-5f8e0724-d5da-49e6-9b38-d161380cbacc"><path d="M.54-24.52v-.68h10.58q5.44 0 8.1 1.57 2.67 1.56 2.67 5.59 0 4.47-3.24 6.16-3.03 1.55-8.46 1.55H9.9v9.65h4.5V0H.54v-.68h2.34v-23.84H.54zm10.33 0H9.9v13.5h.76q2.16 0 2.98-1.47.83-1.48.83-4.79v-1.73q0-3.06-.77-4.28-.78-1.23-2.83-1.23" fill="#ff0d0d" stroke-width="none" transform="translate(3.64 30.63)" style="fill:#ff0d0d" class="path"/></g><g style="transform:scale(.91);transform-origin:-36.02px .879201px;animation:1s linear -.513333s infinite normal forwards running breath-5f8e0724-d5da-49e6-9b38-d161380cbacc"><path d="M35.21-16.13q-1.33 0-2.34 1.73-1.01 1.73-1.01 4.1v9.65h2.56V0H23.18v-.65h1.98v-15.84h-1.98v-.65h8.68v3.46q.47-1.84 1.8-2.83t3.02-.99q1.7 0 2.76.96 1.06.95 1.06 2.7 0 1.74-.79 2.68-.79.94-2.43.94-1.64 0-2.41-1.08-.78-1.08-.2-2.99h1.29q.9-1.84-.75-1.84" fill="#ff0d0d" stroke-width="none" transform="translate(3.64 30.63)" style="fill:#00e2ff" class="path"/></g><g style="transform:scale(.91);transform-origin:-17.625px 1.0592px;animation:1s linear -.44s infinite normal forwards running breath-5f8e0724-d5da-49e6-9b38-d161380cbacc"><path d="M52.45-7.09v-3.06q0-3.49-.38-5.1-.37-1.6-1.74-1.6-.79 0-1.28.45t-.7 1.5q-.33 1.62-.33 4.93v2.81q0 3.92.24 4.71.23.79.48 1.3.4.86 1.55.86 1.41 0 1.84-1.62.32-1.15.32-5.18zM50.22.36q-4.5 0-6.8-2.3-2.31-2.31-2.31-6.61 0-4.3 2.47-6.62 2.46-2.33 6.93-2.33 4.46 0 6.66 2.15 2.19 2.14 2.19 6.53 0 9.18-9.14 9.18" fill="#ff0d0d" stroke-width="none" transform="translate(3.64 30.63)" style="fill:#0eff00" class="path"/></g><g style="transform:scale(.91);transform-origin:-6.03002px 5.5592px;animation:1s linear -.366667s infinite normal forwards running breath-5f8e0724-d5da-49e6-9b38-d161380cbacc"><path d="M60.01-17.14h9.04V-3.1q0 5.91-2.04 9Q64.98 9 60.37 9 57.38 9 56 7.81q-1.39-1.19-1.39-2.77t.94-2.43q.93-.85 2.34-.85 1.4 0 2.1.78.71.77.71 1.71 0 .93-.22 1.8h-1.37q-.57.97-.16 1.65.41.69 1.51.69t1.5-1.24q.39-1.25.39-5.13v-18.51h-2.34v-.65" fill="#ff0d0d" stroke-width="none" transform="translate(3.64 30.63)" style="fill:#ffb900" class="path"/></g><g style="transform:scale(.91);transform-origin:-2.14002px -13.3408px;animation:1s linear -.293333s infinite normal forwards running breath-5f8e0724-d5da-49e6-9b38-d161380cbacc"><path d="M65.63-19.62q-1.91 0-2.72-.97-.81-.97-.81-2.41 0-1.44.88-2.38t2.68-.94q1.8 0 2.74.85.94.85.94 2.41 0 1.57-.9 2.5-.9.94-2.81.94" fill="#ff0d0d" stroke-width="none" transform="translate(3.64 30.63)" style="fill:#f200ff" class="path"/></g><g style="transform:scale(.91);transform-origin:12.446px 1.0592px;animation:1s linear -.22s infinite normal forwards running breath-5f8e0724-d5da-49e6-9b38-d161380cbacc"><path d="M81.04.36q-4.65 0-6.97-2.39-2.32-2.4-2.32-6.66 0-4.27 2.61-6.54Q76.97-17.5 81-17.5q8.17 0 7.85 8.21H78.7v1.41q0 3.52.9 5.32.9 1.8 3.13 1.8 4.17 0 5.47-4.46l.65.11q-.69 2.59-2.47 4.03Q84.6.36 81.04.36zm-2.31-12.13v1.76h3.71v-1.76q0-2.92-.34-3.98t-1.37-1.06q-1.03 0-1.51 1.13-.49 1.14-.49 3.91" fill="#ff0d0d" stroke-width="none" transform="translate(3.64 30.63)" style="fill:#ff0d0d" class="path"/></g><g style="transform:scale(.91);transform-origin:30.615px 1.0592px;animation:1s linear -.146667s infinite normal forwards running breath-5f8e0724-d5da-49e6-9b38-d161380cbacc"><path d="M100.22-16.85q-1.58 0-2.26 1.73-.69 1.73-.69 5.72v1.88q0 3.56.79 5.11.8 1.55 2.92 1.55t3.38-1.44q1.26-1.44 1.62-3.28l.65.07q-.68 3.1-2.52 4.47-1.87 1.4-5.15 1.4-4.17 0-6.4-2.25-2.24-2.25-2.24-6.59t2.54-6.68q2.54-2.34 7.08-2.34 3.2 0 4.89 1.25 1.69 1.24 1.69 3.11 0 1.87-.81 2.74-.81.86-2.23.86t-2.28-.76q-.87-.75-.87-2.23 0-.65.18-1.29h1.19q.25-.72.25-1.3 0-1.73-1.73-1.73" fill="#ff0d0d" stroke-width="none" transform="translate(3.64 30.63)" style="fill:#00e2ff" class="path"/></g><g style="transform:scale(.91);transform-origin:46.495px -1.9108px;animation:1s linear -.0733333s infinite normal forwards running breath-5f8e0724-d5da-49e6-9b38-d161380cbacc"><path d="M109.33-5.15v-11.34h-1.98v-.65h1.98v-4.64l6.7-1.66v6.3h4.68v.65h-4.68v12.13q0 1.7.34 2.49.34.79 1.42.79 1.08 0 1.89-1.08.81-1.08 1.06-2.95l.62.07q-.29 2.48-1.59 3.94-1.29 1.46-4.28 1.46t-4.57-1.19q-1.59-1.19-1.59-4.32" fill="#ff0d0d" stroke-width="none" transform="translate(3.64 30.63)" style="fill:#0eff00" class="path"/></g><g style="transform:scale(.91);transform-origin:61.54px 1.0242px;animation:1s linear 0s infinite normal forwards running breath-5f8e0724-d5da-49e6-9b38-d161380cbacc"><path d="M122.98.36h-.44v-6.44h.44q.93 3.13 2.52 4.39 1.58 1.26 3.96 1.26 3.67 0 3.67-2.34 0-1.01-.9-1.51-1.41-.8-3.6-1.23-2.45-.65-4.11-1.73-1.98-1.29-1.98-4.1 0-2.81 1.73-4.48 1.73-1.68 4.61-1.68 1.76 0 3.64.83.68.29 1.04.29t.61-.25q.25-.25.61-.94h.4v5.51h-.43q-1.84-4.68-5.69-4.68-1.69 0-2.52.59-.83.6-.83 1.5 0 .54.25.84.26.31.4.45.14.15.47.31.32.16.54.25.21.09.66.24.45.14.67.18 2.45.61 3.53 1.06 1.08.45 2.05 1.1 1.98 1.36 1.98 4.41 0 3.04-1.8 4.6-1.8 1.57-4.93 1.57-2.23 0-4.32-1.04-.43-.29-.69-.29-.79 0-1.54 1.33" fill="#ff0d0d" stroke-width="none" transform="translate(3.64 30.63)" style="fill:#ffb900" class="path"/></g></g></svg>