<svg xmlns="http://www.w3.org/2000/svg" style="margin:auto;background:0 0;display:block;shape-rendering:auto" width="224" height="32" preserveAspectRatio="xMidYMid"><style>@keyframes breath-e941c2ab-7b2e-4198-8c5f-cd4f60c66c60{0%{animation-timing-function:cubic-bezier(.9647,.2413,-.0705,.7911);transform:scale(.9099999999999999)}51%{animation-timing-function:cubic-bezier(.9226,.2631,-.0308,.7628);transform:scale(1.02994)}to{transform:scale(.9099999999999999)}}</style><g style="transform-origin:112px 16px;transform:scale(1)"><g style="transform:scale(.91);transform-origin:-96.25px -2.09809px;animation:.641026s linear -.376068s infinite normal forwards running breath-e941c2ab-7b2e-4198-8c5f-cd4f60c66c60"><path d="M20.98-6.88q0 1.46-.36 2.57-.37 1.11-1.03 1.92-.67.81-1.57 1.36-.91.55-1.98.87-1.07.33-2.27.47-1.19.14-2.43.14-1.62 0-3-.24-1.37-.24-2.58-.76-1.21-.53-2.33-1.36-1.12-.82-2.23-2.01l3.19-3.24q.44 1.08 1.2 2 .77.91 1.68 1.57.92.65 1.9 1.03.99.37 1.86.37 1.03 0 1.94-.15.91-.14 1.58-.49.67-.34 1.05-.91.38-.57.38-1.43 0-.66-.29-1.13-.3-.47-.78-.8-.47-.34-1.08-.57-.61-.24-1.24-.4-.64-.16-1.25-.3-.61-.13-1.07-.27-.93-.27-1.93-.57-1-.31-1.96-.7-.97-.39-1.84-.89-.87-.51-1.52-1.21-.66-.69-1.05-1.61-.39-.91-.39-2.1 0-1.42.35-2.52t.99-1.92q.64-.81 1.52-1.36.87-.56 1.92-.89 1.05-.34 2.23-.49 1.18-.15 2.41-.15 1.69 0 3.07.32 1.38.31 2.56.89 1.17.57 2.14 1.38.98.8 1.84 1.79l-3.19 3.23q-.37-1.12-1.04-2.03-.66-.91-1.47-1.55-.82-.65-1.71-1-.89-.36-1.72-.36-1.07 0-1.98.15-.91.15-1.55.49-.65.33-1.01.9-.36.57-.36 1.42 0 .67.26 1.14.27.47.71.8.45.32 1.01.53.57.22 1.17.37.6.16 1.18.28.59.11 1.07.25.94.27 1.97.57 1.03.29 2.03.69 1 .4 1.91.91.91.52 1.59 1.23.69.71 1.1 1.64.4.93.4 2.13" fill="#05a8ff" stroke-width="none" transform="translate(4.66 25.202)" style="fill:#05a8ff" class="path"/></g><g style="transform:scale(.91);transform-origin:-71.9138px .10191px;animation:.641026s linear -.32906s infinite normal forwards running breath-e941c2ab-7b2e-4198-8c5f-cd4f60c66c60"><path d="M46.27-10.77v.3q-.04 1.31-.28 2.72-.24 1.41-.68 2.81-.43 1.41-1.04 2.78Q43.66-.78 42.9.48q-.76 1.25-1.63 2.36-.88 1.1-1.85 1.94l-2.33-1.34q.55-.92 1-2.01.44-1.09.8-2.27.36-1.19.62-2.44t.43-2.49q.17-1.23.26-2.43.08-1.19.08-2.27 0-.84-.01-1.91 0-1.07-.12-2.18t-.38-2.17q-.27-1.05-.79-1.88-.53-.83-1.35-1.33-.82-.5-2.04-.5-1.07 0-1.85.37-.77.37-1.31.98-.54.62-.86 1.43-.32.82-.5 1.71-.18.9-.23 1.82-.06.91-.06 1.72v4.36h6.74v2.58h-6.74V0h-6.2v-11.44q0-2.45.78-4.56.78-2.11 2.21-3.66 1.43-1.56 3.44-2.44 2.01-.88 4.47-.88 1.68 0 3.14.47 1.46.48 2.66 1.31 1.2.84 2.15 1.99t1.58 2.51q.63 1.36.96 2.87.33 1.52.3 3.06" fill="#05a8ff" stroke-width="none" transform="translate(4.66 25.202)" style="fill:#ff2b21" class="path"/></g><g style="transform:scale(.91);transform-origin:-43.975px -2.04809px;animation:.641026s linear -.282051s infinite normal forwards running breath-e941c2ab-7b2e-4198-8c5f-cd4f60c66c60"><path d="m59.61 0-5.14-16.78L52.72 0h-3.83l3.83-22.5h5.67l5.27 17.17 5.32-17.17h5.68L77.84 0h-6.31l-1.86-16.34L65.28 0h-5.67" fill="#05a8ff" stroke-width="none" transform="translate(4.66 25.202)" style="fill:#ffcf00" class="path"/></g><g style="transform:scale(.91);transform-origin:-22.3px -2.04809px;animation:.641026s linear -.235043s infinite normal forwards running breath-e941c2ab-7b2e-4198-8c5f-cd4f60c66c60"><path d="M88.14-22.5V0h-6.2v-22.5h6.2" fill="#05a8ff" stroke-width="none" transform="translate(4.66 25.202)" style="fill:#1fff00" class="path"/></g><g style="transform:scale(.91);transform-origin:-4.02001px -2.04809px;animation:.641026s linear -.188034s infinite normal forwards running breath-e941c2ab-7b2e-4198-8c5f-cd4f60c66c60"><path d="M99.44-8.41V0h-6.21v-22.5h11.07q1.56 0 3.01.37 1.46.36 2.57 1.15 1.12.79 1.78 2.04.67 1.25.67 3.03 0 1.39-.59 2.62-.58 1.23-1.56 2.19-.98.96-2.24 1.59-1.27.63-2.63.84.61 1.03 1.28 1.95.66.92 1.34 1.73.68.8 1.35 1.48.67.68 1.28 1.24Q112-.95 113.41 0h-7.74q-.94-.89-1.78-2.14-.72-1.06-1.44-2.63-.73-1.57-1.12-3.64h-1.89zm6.59-7.5q0-2.26-1.1-3.32-1.1-1.07-3.3-1.07h-2.19v9.77h2.19q1.17 0 2-.45.84-.44 1.37-1.18.53-.75.78-1.72.25-.96.25-2.03" fill="#05a8ff" stroke-width="none" transform="translate(4.66 25.202)" style="fill:#ff06fb" class="path"/></g><g style="transform:scale(.91);transform-origin:28.135px -2.04809px;animation:.641026s linear -.141026s infinite normal forwards running breath-e941c2ab-7b2e-4198-8c5f-cd4f60c66c60"><path d="M131.59-8.41V0h-6.2v-22.5h12.16q1.58 0 3.02.42 1.45.42 2.56 1.28 1.1.85 1.77 2.14.66 1.28.66 3.02 0 1.09-.31 2.05-.31.96-.87 1.76-.55.8-1.3 1.44-.75.64-1.64 1.08-.89.43-1.89.67-.99.23-2 .23h-5.96zm7.69-7.23q0-2.17-1.1-3.41-1.1-1.25-3.32-1.25h-3.27v9.77h3.27q1.19 0 2.02-.38.84-.39 1.37-1.07.53-.69.78-1.62.25-.93.25-2.04" fill="#05a8ff" stroke-width="none" transform="translate(4.66 25.202)" style="fill:#05a8ff" class="path"/></g><g style="transform:scale(.91);transform-origin:52.0362px .10191px;animation:.641026s linear -.0940171s infinite normal forwards running breath-e941c2ab-7b2e-4198-8c5f-cd4f60c66c60"><path d="M170.22-10.77v.3q-.03 1.31-.27 2.72-.25 1.41-.68 2.81-.44 1.41-1.05 2.78-.61 1.38-1.37 2.64-.76 1.25-1.63 2.36-.88 1.1-1.84 1.94l-2.33-1.34q.54-.92.99-2.01.44-1.09.8-2.27.36-1.19.62-2.44t.43-2.49q.17-1.23.26-2.43.08-1.19.08-2.27v-1.91q-.01-1.07-.13-2.18-.12-1.11-.38-2.17-.27-1.05-.79-1.88-.52-.83-1.34-1.33-.82-.5-2.04-.5-1.08 0-1.85.37-.78.37-1.32.98-.54.62-.86 1.43-.32.82-.5 1.71-.18.9-.23 1.82-.06.91-.06 1.72v4.36h6.74v2.58h-6.74V0h-6.2v-11.44q0-2.45.78-4.56.78-2.11 2.21-3.66 1.43-1.56 3.44-2.44 2.01-.88 4.48-.88 1.67 0 3.13.47 1.46.48 2.66 1.31 1.21.84 2.15 1.99.95 1.15 1.58 2.51.63 1.36.96 2.87.33 1.52.3 3.06" fill="#05a8ff" stroke-width="none" transform="translate(4.66 25.202)" style="fill:#ff2b21" class="path"/></g><g style="transform:scale(.91);transform-origin:76.7037px -1.80809px;animation:.641026s linear -.0470085s infinite normal forwards running breath-e941c2ab-7b2e-4198-8c5f-cd4f60c66c60"><path d="M176.3-22.5h4.54q-.42 1.27-.73 2.62t-.52 2.7q-.2 1.35-.3 2.66-.1 1.32-.1 2.49 0 .86.01 1.93 0 1.07.12 2.18t.38 2.16q.27 1.06.79 1.88.53.83 1.35 1.33.82.5 2.04.5 1.07 0 1.85-.36.77-.37 1.31-1 .54-.62.86-1.43.32-.82.5-1.71t.23-1.8q.06-.92.06-1.74V-22.5h6.2v11.44q0 2.45-.78 4.56-.78 2.11-2.2 3.66-1.43 1.56-3.44 2.44-2.02.88-4.47.88-1.69 0-3.14-.47-1.45-.48-2.66-1.31-1.22-.84-2.16-1.99-.95-1.15-1.58-2.51-.63-1.36-.96-2.86-.33-1.51-.3-3.06v-.31q.02-1.25.25-2.59.24-1.33.64-2.68.39-1.34.96-2.66.56-1.32 1.25-2.54" fill="#05a8ff" stroke-width="none" transform="translate(4.66 25.202)" style="fill:#ffcf00" class="path"/></g><g style="transform:scale(.91);transform-origin:100.46px -2.04809px;animation:.641026s linear 0s infinite normal forwards running breath-e941c2ab-7b2e-4198-8c5f-cd4f60c66c60"><path d="M215.88-2.86V0h-16.16v-22.5h6.2v19.64h9.96" fill="#05a8ff" stroke-width="none" transform="translate(4.66 25.202)" style="fill:#1fff00" class="path"/></g></g></svg>