<svg xmlns="http://www.w3.org/2000/svg" style="margin:auto;background:0 0;display:block;shape-rendering:auto" width="220" height="75" preserveAspectRatio="xMidYMid"><style>@keyframes breath-2e1569fd-c2d8-4848-bed3-237d9330fc4e{0%{animation-timing-function:cubic-bezier(.9647,.2413,-.0705,.7911);transform:scale(.9099999999999999)}51%{animation-timing-function:cubic-bezier(.9226,.2631,-.0308,.7628);transform:scale(1.02994)}to{transform:scale(.9099999999999999)}}</style><g style="transform-origin:110px 37.5px;transform:scale(1)"><g style="transform:scale(.91);transform-origin:-83.8px -5.3794px;animation:.641026s linear -.338462s infinite normal forwards running breath-2e1569fd-c2d8-4848-bed3-237d9330fc4e"><path d="m28.54-45.43.32-2.54q0-3.77-2.95-4.84-2.29-.74-3.52-.74h-.09q-2.46 0-4.26.78-1.8.78-2.62 1.93-1.73 2.38-1.97 5 0 3.12 2.79 5.37 2.78 2.26 6.76 3.94 3.98 1.68 7.96 3.65 3.97 1.97 6.76 5.66 2.79 3.69 2.79 8.85 0 10.09-6.36 15.09-6.35 5-14.43 5T6.36-1.93q-5.29-3.65-5.29-9.8v-.08q0-3.03.94-5.29.94-2.25 2.25-3.32 2.71-2.21 4.92-2.38l.99-.08q2.29 0 4.18 1.11 1.89 1.11 1.89 3.07 0 .99-1.07 1.64-1.07.66-1.84 1.97-.78 1.31-.87 2.22l-.16.9q0 5 4.59 6.64 1.64.57 2.63.57 4.51 0 7.25-2.7 2.75-2.71 2.75-6.89 0-5-4.26-8.12-3.2-2.29-6.93-3.85-3.73-1.56-5.05-2.22-1.31-.65-2.78-1.55-1.48-.91-3.28-2.55-3.94-3.44-3.94-9.3 0-5.87 3.2-9.88 5.74-7.3 17.22-7.3 6.07 0 10.25 2.33 4.18 2.34 4.18 6.44 0 2.95-1.68 4.92-1.68 1.97-4.31 1.97-1.23 0-2.41-.49-1.19-.49-1.19-1.48" fill="#2477ff" stroke-width="none" transform="translate(5.41 60.82)" style="fill:#2477ff" class="path"/></g><g style="transform:scale(.91);transform-origin:-38.905px -5.6644px;animation:.641026s linear -.253846s infinite normal forwards running breath-2e1569fd-c2d8-4848-bed3-237d9330fc4e"><path d="M65.6-46.99q-6.48 8.12-9.35 16.24h.08q11.4 0 13.08.04 1.68.04 1.85-.12.16-.17.24-.41-1.39-10.09-2.21-13.74-.82-3.65-1.64-3.65t-2.05 1.64zM58.3-8.36l1.81-.33q.82 0 .82.9 0 2.87-1.15 4.84-1.15 1.97-2.87 2.79-2.79 1.39-4.76 1.39-3.77 0-5.66-2.83-1.88-2.83-1.88-8.53 0-5.7 3.11-14.8h-4.75q-.9 0-.9-.9t1.39-2.91q1.39-2.01 2.95-2.01h3.69q5.82-12.96 13.7-22.39 2.05-2.46 5.04-4.59t4.63-2.13q1.64 0 2.46 1.48 2.13 3.44 5 25.17.99 9.35 3.41 19.31 2.42 9.96 4.47 11.6.49.33.49.82 0 1.23-3.49 2.3-3.48 1.07-5.33 1.07-1.84 0-2.83-.45-.98-.46-1.23-.95-1.47-3.2-2.95-15.25l-.49-3.85q-.33-3.86-.66-5.83l-.57-.41-17.14-.08q-.98 4.18-.98 7.3t.2 4.55q.21 1.44 1.36 3.08 1.14 1.64 3.11 1.64" fill="#2477ff" stroke-width="none" transform="translate(5.41 60.82)" style="fill:#ff3220" class="path"/></g><g style="transform:scale(.91);transform-origin:12.92px -5.9544px;animation:.641026s linear -.169231s infinite normal forwards running breath-2e1569fd-c2d8-4848-bed3-237d9330fc4e"><path d="m93.23-31.9-.41-15.5q0-3.69-.82-5.82-.82-2.13-.82-2.29 0-1.81 5.54-2.79 5.53-.99 8.45-.99 2.91 0 3.15 1.4 5.17 23.04 8.69 31.98.41.98.87.98.45 0 .77-.74 5.5-15.49 9.68-30.66.33-.99 1.64-1.52 1.31-.53 4.55-1.03 3.24-.49 6.44-.49t3.2 1.31q0 .09-.25 1.27-.25 1.19-.49 2.92-.25 1.72-.58 4.18-.73 5.66-.94 12.99-.2 7.34-.2 14.72l.16 8.61q0 5.91.78 8.41t.78 2.87q0 .37-.58.86-2.54 2.05-7.7 2.05-3.28 0-3.69-2.21-.25-1.15-.25-3.65t.49-15.38q.49-12.87.49-18.74 0-5.86-.65-5.86-.08 0-.08.04t-.25.13q-.25.08-1.27 2.54-1.03 2.46-4.06 12.13-3.03 9.68-5.49 18.08-2.46 8.41-2.71 9.07-.9 2.21-3.44 2.21-1.23 0-1.97-.9-2.63-12.14-9.35-34.69l-2.3-7.46q-.16-.41-.32-.41-.41 0-.58.57-.33 5.33-.33 20.95 0 15.63 1.15 19.73.08.16.08.49 0 1.72-2.7 2.5-2.71.78-4.88.78t-2.17-.99q0-.08.41-1.31 1.23-4.18 1.6-12.13.36-7.96.36-18.21" fill="#2477ff" stroke-width="none" transform="translate(5.41 60.82)" style="fill:#ffbc00" class="path"/></g><g style="transform:scale(.91);transform-origin:51.255px -5.1744px;animation:.641026s linear -.0846154s infinite normal forwards running breath-2e1569fd-c2d8-4848-bed3-237d9330fc4e"><path d="M161.38-36.33q0 25.42 1.14 33.3 0 1.96-3.77 3.24-3.77 1.27-6.23 1.27-2.46 0-2.46-.74 0-.49.25-1.23 1.55-3.45 1.55-27.72 0-22.96-1.96-25.5l-.33-.49q-.49-.41-.49-1.03 0-.61.9-1.02 1.23-.74 4.39-1.48 3.15-.74 5.69-.74 2.55 0 2.55 1.15v.25q-.99 8.53-1.23 20.74" fill="#2477ff" stroke-width="none" transform="translate(5.41 60.82)" style="fill:#00e677" class="path"/></g><g style="transform:scale(.91);transform-origin:84.665px -5.2144px;animation:.641026s linear 0s infinite normal forwards running breath-2e1569fd-c2d8-4848-bed3-237d9330fc4e"><path d="m196.96-31.32-1.23.24q-.9.25-.9.53 0 .29 1.97 1.03t3.73 2.3q1.76 1.55 2.5 3.77 1.15 3.36 1.15 7.21 0 3.86.57 6.36.58 2.5 1.4 3.81 1.64 2.79 3.03 3.45l.58.32q.49.33.49.82 0 1.23-4.02 2.18-4.02.94-6.23.94-4.35 0-5.54-3.48-1.19-3.49-1.19-11.94v-4.51q0-7.13-4.26-9.1-1.64-.74-3.94-.74h-.08q-.74 0-.74-1.43 0-1.44.87-2.91.86-1.48 1.51-1.48 2.71 0 4.68-1.02 1.96-1.03 2.87-2.5 1.88-3.12 2.05-5.33v-1.07q0-3.03-.99-5.13-.98-2.09-2.46-2.91-2.46-1.31-5-1.31t-4.18.41q-2.3.66-2.3 1.4-.74 10.74-.74 20.7 0 9.96.29 15.25.29 5.29.58 8.53.28 3.24.28 3.81 0 1.07-.57 1.48-3.36 3.12-10.58 3.12-1.23 0-1.23-.82 0-.25.25-1.15.82-1.89 1.19-11.97.36-10.09.36-18.41 0-8.33-.32-13.49-.5-7.79-1.64-9.35-.91-1.15-.91-1.6 0-.45.91-.94 5.24-2.46 19.02-2.46 11.07 0 16.56 6.23 2.96 3.44 2.96 8.61 0 3.12-1.23 5.58t-3.04 3.77q-3.44 2.62-6.48 3.2" fill="#2477ff" stroke-width="none" transform="translate(5.41 60.82)" style="fill:#e100ff" class="path"/></g></g></svg>